<svg xmlns="http://www.w3.org/2000/svg" xmlns:xlink="http://www.w3.org/1999/xlink" viewBox="0 0 440.2 309.83"><defs><style>.cls-1{isolation:isolate;}.cls-2{fill:#b5dfea;}.cls-3{fill:#90cedd;}.cls-19,.cls-3{opacity:0.55;}.cls-4{fill:#d7f0f9;}.cls-5{fill:#0582c1;}.cls-6{fill:#79c9e8;}.cls-7{fill:#fff;}.cls-8{fill:#ffbf4d;}.cls-9{fill:#00668e;}.cls-10{fill:#05556d;}.cls-11{fill:#f98d3d;}.cls-12{fill:#ed701b;}.cls-13{fill:none;}.cls-14{fill:#efaa3a;}.cls-15{fill:#f98d2b;opacity:0.29;mix-blend-mode:multiply;}.cls-16{fill:#49b4d6;}.cls-17{fill:#ff9f50;}.cls-18{fill:#f77e2d;}.cls-19{mix-blend-mode:overlay;fill:url(#linear-gradient);}</style><linearGradient id="linear-gradient" x1="241.51" y1="248.73" x2="241.51" y2="224.68" gradientUnits="userSpaceOnUse"><stop offset="0" stop-color="#fff"/><stop offset="0.12" stop-color="#fff" stop-opacity="0.82"/><stop offset="0.3" stop-color="#fff" stop-opacity="0.58"/><stop offset="0.47" stop-color="#fff" stop-opacity="0.37"/><stop offset="0.64" stop-color="#fff" stop-opacity="0.21"/><stop offset="0.78" stop-color="#fff" stop-opacity="0.1"/><stop offset="0.91" stop-color="#fff" stop-opacity="0.02"/><stop offset="1" stop-color="#fff" stop-opacity="0"/></linearGradient></defs><title>img_error404</title><g class="cls-1"><g id="OBJECTS"><path class="cls-2" d="M423.16,280.94a12.73,12.73,0,0,0,12.73-12.52c.53-34.65,3.32-85.75-61.92-99.88-52.8-11.44-21.5-105.27-163.69-99.21-102.07,4.36-75,90.39-154.32,97.56C3.15,171.65,2.69,238.45,4.72,269.05a12.73,12.73,0,0,0,12.71,11.89Z"/><path class="cls-3" d="M374,168.54c-52.8-11.44-21.5-105.27-163.69-99.21C186,70.37,169,76,156.21,84.15c4.32-.57,8.91-1,13.8-1.18C312.2,76.91,280.9,170.74,333.7,182.18c64.55,14,62.5,64.15,61.94,98.76h27.52a12.73,12.73,0,0,0,12.73-12.52C436.42,233.77,439.21,182.67,374,168.54Z"/><path class="cls-4" d="M310.87,65.33,143.93,45.85A13,13,0,0,0,129.5,57.26L117,164a13,13,0,0,0,11.41,14.43l167,19.49a13,13,0,0,0,14.42-11.42L322.28,79.76A13,13,0,0,0,310.87,65.33Z"/><path class="cls-5" d="M321.05,90.33l1.23-10.57a13,13,0,0,0-11.41-14.43L143.93,45.85A13,13,0,0,0,129.5,57.26l-1.23,10.56Z"/><path class="cls-6" d="M155.28,132.47l21.16-37.29a6.86,6.86,0,0,1,6.74-3.42h0a6.85,6.85,0,0,1,6,7.59l-4.41,37.71.19,0a4.75,4.75,0,0,1,4.16,5.26h0a4.74,4.74,0,0,1-5.26,4.15l-.19,0-.8,6.87a5.11,5.11,0,0,1-5.67,4.49h0a5.12,5.12,0,0,1-4.49-5.68l.8-6.86-15.23-1.78a4.75,4.75,0,0,1-4.17-5.27l.41-3.46A5.94,5.94,0,0,1,155.28,132.47Zm19.4,2.78,2.73-23.38a.15.15,0,0,0-.28-.1l-12.5,22.07a.63.63,0,0,0,.47.93l8.89,1A.62.62,0,0,0,174.68,135.25Z"/><path class="cls-6" d="M248.67,143.37l21.17-37.29a6.82,6.82,0,0,1,6.73-3.41h0a6.83,6.83,0,0,1,6,7.58L278.17,148l.19,0a4.72,4.72,0,0,1,4.15,5.25h0a4.73,4.73,0,0,1-5.25,4.16l-.19,0-.8,6.87a5.11,5.11,0,0,1-5.67,4.49h0a5.11,5.11,0,0,1-4.49-5.67l.8-6.87-15.24-1.78a4.74,4.74,0,0,1-4.16-5.26l.41-3.46A6.09,6.09,0,0,1,248.67,143.37Zm19.41,2.79,2.73-23.39a.15.15,0,0,0-.28-.09L258,144.74a.62.62,0,0,0,.47.93l8.89,1A.63.63,0,0,0,268.08,146.16Z"/><path class="cls-6" d="M206.69,110.53c1.23-10.54,7.48-15.91,17.64-14.72s15,7.85,13.78,18.39l-4,34.25c-1.23,10.54-7.49,15.91-17.65,14.73s-15-7.86-13.78-18.4ZM213,146.65c-.55,4.7,1.32,6.73,4.61,7.12s5.57-1.17,6.12-5.87l4.15-35.57c.55-4.7-1.31-6.73-4.6-7.12s-5.58,1.17-6.13,5.87Z"/><path class="cls-7" d="M148,60.6a3.5,3.5,0,1,1-3.07-3.88A3.5,3.5,0,0,1,148,60.6Z"/><path class="cls-6" d="M164.69,62.55a3.49,3.49,0,1,1-3.06-3.87A3.49,3.49,0,0,1,164.69,62.55Z"/><path class="cls-8" d="M182.05,64.58A3.49,3.49,0,1,1,179,60.7,3.49,3.49,0,0,1,182.05,64.58Z"/><path class="cls-9" d="M114.89,186.18A90.22,90.22,0,0,0,113,206.4c.34,9.15-.75,69.31-.75,69.31h7.35s10.46-47.12,10.85-50.84,5.65-40.93,5.65-40.93Z"/><path class="cls-5" d="M119.78,183.44s1.69,12.85,4.57,22,17,70.29,17,70.29h7.35s-1.35-47.12-1.86-50.84-4.23-40.93-4.23-40.93Z"/><path class="cls-5" d="M142,275.7v5.13h14a.8.8,0,0,0,.44-1.47c-2-1.37-5.32-3.24-8.36-3.66Z"/><path class="cls-5" d="M112.64,275.7v5.13h14a.8.8,0,0,0,.45-1.47c-2-1.37-5.32-3.24-8.37-3.66Z"/><path class="cls-9" d="M137.87,123.64s4.81-7.3-.71-8c-4.24-.54-6,.72-6,.72s-4.88-.54-7.55,1.78c-1.83,1.59-8.55,13.9,2.32,18.35s8.55-6.95,8.55-6.95Z"/><path class="cls-10" d="M137.16,115.62c-4.24-.54-6,.72-6,.72s-4.88-.54-7.55,1.78c-1.83,1.59-8.55,13.9,2.32,18.35,5.1,2.1,7.3.68,8.19-1.4-10.31,2.9-11.43-9.53-9.73-13.06s5.88-1.94,5.88-1.94c1.62-4.08,6.9-3.64,9.08-3.32A3,3,0,0,0,137.16,115.62Z"/><path class="cls-11" d="M131.1,127.21s-1.42-1.43-2.49,0-.36,4.63,1.42,4.81c0,0-.53,4.63-4.09,4.45v3.74h8.37v-2.85s5.17-2.14,5-6.41a23.63,23.63,0,0,0-1.43-7.31A11.65,11.65,0,0,1,131.1,127.21Z"/><path class="cls-12" d="M132.38,138.56c.83.35.69.87.73,1.65h1.2v-2.85s-2,.65-5-1.05A13.16,13.16,0,0,0,132.38,138.56Z"/><path class="cls-11" d="M134.1,120.39s-4.34-1.73-4.85-.44c-.33.85.51,1.58,1.67,2.32l-1,.17a.27.27,0,0,0-.13.47,5.71,5.71,0,0,0,2.71.45Z"/><polygon class="cls-13" points="108.28 167.46 114.09 186.2 113.99 185.26 114.09 186.2 116.06 158.91 108.28 167.46"/><path class="cls-8" d="M165.09,131.26c-8.27-6.14-30.88-11-30.88-11l-1.86,3.39s20.52,8,19.17,9.14c-.8.7-10.83,5.3-14.22,6.84a5.23,5.23,0,0,1-2.34.48L124.57,140a16.39,16.39,0,0,0-13.39,5.89C105.9,152,96.94,166,96.94,166l15.1,22.2,1.67,2.45v.18l1.49.14c4.85.45,20.4,1.68,28.64-.06l.22-.05-.39-36.43a140.87,140.87,0,0,0,21.67-21A1.51,1.51,0,0,0,165.09,131.26Zm-50.65,49.67L113,177.71l-4.69-10.25,7.78-8.72-1.4,19.13Z"/><polygon class="cls-14" points="112.97 177.71 114.44 180.93 113.72 190.64 113.71 190.67 112.04 188.22 112.97 177.71"/><path class="cls-15" d="M140.16,153.15c-1.4,1-1,10-1.39,15.65-.58,9.43-1.14,17.59-.72,22.85a42.92,42.92,0,0,0,5.79-.72l.22-.05-.39-36.43a140.87,140.87,0,0,0,21.67-21,1.51,1.51,0,0,0-.25-2.23A185.47,185.47,0,0,1,140.16,153.15Z"/><path class="cls-9" d="M146.84,224.87c-.37-2.68-2.41-22.8-3.51-33.8l-5.28.58s7.7,63.34,8.21,84.06h2.44S147.35,228.59,146.84,224.87Z"/><path class="cls-5" d="M113,128.24l-1.59-2.85a10.81,10.81,0,1,0-1.87,2.54Z"/><path class="cls-7" d="M96.25,119.37h.42v1.51c0,.46.14.66.46.66s.43-.13.67-.42v-1.75h.41v2.46h-.34l0-.38h0a1,1,0,0,1-.81.45c-.52,0-.76-.34-.76-1Z"/><path class="cls-7" d="M100,122v.83h-.41v-3.5h.34l0,.29h0a1.27,1.27,0,0,1,.79-.35c.63,0,1,.5,1,1.26s-.5,1.33-1.07,1.33a1.15,1.15,0,0,1-.68-.29Zm.6-.49c.41,0,.71-.37.71-1s-.19-.91-.65-.91a1,1,0,0,0-.66.34v1.29A1,1,0,0,0,100.56,121.55Z"/><path class="cls-7" d="M102.79,121.28a1.13,1.13,0,0,0,.73.29c.32,0,.48-.17.48-.38s-.29-.37-.56-.47-.73-.29-.73-.71.31-.7.84-.7a1.26,1.26,0,0,1,.77.28l-.2.27a.92.92,0,0,0-.56-.22c-.31,0-.45.17-.45.35s.27.32.54.43.75.28.75.74-.32.74-.9.74a1.47,1.47,0,0,1-.91-.34Z"/><path class="cls-7" d="M105.7,121.26a.31.31,0,0,1,.3.32.31.31,0,0,1-.3.32.31.31,0,0,1-.3-.32A.3.3,0,0,1,105.7,121.26Z"/><path class="cls-7" d="M107.47,121.26a.31.31,0,0,1,.3.32.31.31,0,1,1-.61,0A.31.31,0,0,1,107.47,121.26Z"/><path class="cls-6" d="M71.64,257.88s-2.26-2.11-.74-10.14,5.38-15.73,3.48-24.43-16.72-30.66-16.77-32.12S53,216.73,60.7,227.36s8.6,14.32,8.26,19.92.08,10.09.92,11.39Z"/><path class="cls-16" d="M70.24,241.74c-.89,3.58-1.43,12.56,0,14.71.13.2.32.08.56-.29-.44-1.48-.72-4.08.1-8.42,1.52-8,5.38-15.73,3.48-24.43s-16.72-30.66-16.77-32.12c0,0,2.23,18.29,9.76,30.88C72.76,231.08,71.13,238.16,70.24,241.74Z"/><path class="cls-6" d="M74.35,257.32s-4.36-10.88,3-20.3,19.19-21.51,19.43-26.3c0,0,3,22.75-6.58,29.19s-16.35,7.47-14.69,17.37Z"/><path class="cls-16" d="M84.72,235.33c-10.71,7.81-11.59,16.79-9.93,21a1.1,1.1,0,0,0,.7.63c-1.44-9.57,5.25-10.65,14.74-17s6.58-29.19,6.58-29.19S95.44,227.53,84.72,235.33Z"/><path class="cls-6" d="M67.18,257.57a38.06,38.06,0,0,0,.66-12c-.75-6.22-7.24-9.72-13.32-16.29-3.12-3.38-4-21.25-2.11-22.91,0,0-10.71,13-9.06,22.49s19.14,15.69,20.76,20.29a25.7,25.7,0,0,1,1.48,8.45Z"/><path class="cls-16" d="M48.79,211.5c-3.54,9.59.09,21.21,11.86,28.42,8.66,5.32,5.9,16.36,5.9,16.36L68,251.93a35.06,35.06,0,0,0-.13-6.34c-.75-6.22-7.24-9.72-13.32-16.29-3-3.26-4-20-2.3-22.67A57,57,0,0,0,48.79,211.5Z"/><path class="cls-16" d="M52.22,206.63l.19-.24A1,1,0,0,0,52.22,206.63Z"/><path class="cls-6" d="M76.59,256.85s2.51-9.32,8.73-10.58S98.66,235.84,99.05,234C99.05,234,98,251.35,76.59,256.85Z"/><path class="cls-16" d="M85,249.36c-3.81,1.9-5.39,4.46-5.95,6.78,19.06-6.13,20-22.1,20-22.1a7,7,0,0,1-1,1.82C96.21,239.13,91.69,246,85,249.36Z"/><path class="cls-8" d="M90,253.42H57.54l3.86,24.27a3.78,3.78,0,0,0,3.74,3.19H82.43a3.79,3.79,0,0,0,3.75-3.19Z"/><polygon class="cls-17" points="89.4 257.43 90.04 253.42 57.54 253.42 58.18 257.43 89.4 257.43"/><path class="cls-17" d="M82.16,253.42l-3.85,24.27a3.79,3.79,0,0,1-3.75,3.19h7.87a3.79,3.79,0,0,0,3.75-3.19L90,253.42Z"/><rect class="cls-8" x="167.3" y="210.13" width="146.86" height="29.86"/><rect class="cls-15" x="167.3" y="210.13" width="146.86" height="7.25"/><polygon class="cls-18" points="180.07 210.13 193.47 210.13 189.88 217.38 176.47 217.38 180.07 210.13"/><polygon class="cls-18" points="210.27 210.13 223.68 210.13 220.08 217.38 206.68 217.38 210.27 210.13"/><polygon class="cls-18" points="240.47 210.13 253.87 210.13 250.28 217.38 236.88 217.38 240.47 210.13"/><polygon class="cls-18" points="270.67 210.13 284.07 210.13 280.47 217.38 267.08 217.38 270.67 210.13"/><polygon class="cls-18" points="314.17 210.13 314.17 210.34 310.67 217.38 297.28 217.38 300.87 210.13 314.17 210.13"/><rect class="cls-6" x="185.58" y="240" width="10.35" height="40.83"/><rect class="cls-16" x="193.58" y="240" width="2.35" height="40.83"/><rect class="cls-6" x="286.33" y="240" width="10.35" height="40.83"/><rect class="cls-16" x="293.63" y="240" width="3.06" height="40.83"/><rect class="cls-16" x="185.58" y="239.97" width="10.35" height="5.14"/><rect class="cls-16" x="286.33" y="239.97" width="10.35" height="5.14"/><rect class="cls-6" x="185.58" y="205.47" width="10.35" height="4.64"/><rect class="cls-16" x="193.58" y="205.47" width="2.35" height="4.64"/><rect class="cls-6" x="286.33" y="205.47" width="10.35" height="4.64"/><rect class="cls-16" x="293.63" y="205.47" width="3.06" height="4.64"/><rect class="cls-16" x="185.58" y="209.52" width="10.35" height="0.58"/><rect class="cls-16" x="286.33" y="209.52" width="10.35" height="0.58"/><polygon class="cls-5" points="193.47 210.13 178.66 240 167.3 240 167.3 235.88 180.07 210.13 193.47 210.13"/><polygon class="cls-5" points="210.27 210.13 195.46 240 208.86 240 223.68 210.13 210.27 210.13"/><polygon class="cls-5" points="253.87 210.13 239.06 240 225.66 240 240.47 210.13 253.87 210.13"/><polygon class="cls-5" points="284.07 210.13 269.26 240 255.86 240 270.67 210.13 284.07 210.13"/><polygon class="cls-5" points="300.87 210.13 286.06 240 299.45 240 314.17 210.34 300.87 210.13"/><polygon class="cls-9" points="193.47 210.13 189.88 217.38 176.47 217.38 180.07 210.13 193.47 210.13"/><polygon class="cls-9" points="223.68 210.13 220.08 217.38 206.68 217.38 210.27 210.13 223.68 210.13"/><polygon class="cls-9" points="253.87 210.13 250.28 217.38 236.88 217.38 240.47 210.13 253.87 210.13"/><polygon class="cls-9" points="284.07 210.13 280.47 217.38 267.08 217.38 270.67 210.13 284.07 210.13"/><polygon class="cls-9" points="314.17 210.34 310.67 217.38 297.28 217.38 300.87 210.13 314.17 210.34"/><rect class="cls-19" x="171.39" y="223.05" width="140.24" height="14.94"/><circle class="cls-8" cx="190.49" cy="198.99" r="9.23" transform="translate(-29.49 33.19) rotate(-9.24)"/><path class="cls-5" d="M194.67,199a4.18,4.18,0,1,0-4.18,4.18A4.18,4.18,0,0,0,194.67,199Z"/><circle class="cls-8" cx="291.45" cy="198.99" r="9.23" transform="translate(-28.18 49.4) rotate(-9.24)"/><path class="cls-5" d="M295.63,199a4.18,4.18,0,1,0-4.18,4.18A4.18,4.18,0,0,0,295.63,199Z"/><path class="cls-8" d="M369.8,277.66H323l7.16-17.34h0l2.87-7,.8-1.92,1.29-3.12.26-.64,2.88-7,.53-1.28,5.1-12.38a2.7,2.7,0,0,1,5,0l5.1,12.38.53,1.28,2.87,7,.27.64,1.29,3.12.79,1.92,2.88,7h0Z"/><polygon class="cls-15" points="326.1 270.23 323.03 277.66 369.81 277.66 366.74 270.23 326.1 270.23"/><rect class="cls-6" x="319.29" y="273.22" width="53.57" height="7.57"/><rect class="cls-16" x="361.29" y="273.22" width="11.57" height="7.57"/><path class="cls-15" d="M368,273.21h-6.61L356,260.32h0l-2.87-7-.8-1.92-1.29-3.13-.26-.63-2.88-7-.53-1.27-4.29-10.43.81-1.95a2.7,2.7,0,0,1,5,0l5.1,12.38.53,1.27,2.87,7,.27.63L359,251.4l.79,1.92,2.88,7h0Z"/><polygon class="cls-5" points="357.42 247.63 335.41 247.63 338.29 240.64 354.55 240.64 357.42 247.63"/><polygon class="cls-5" points="362.65 260.31 362.65 260.32 330.19 260.32 330.19 260.31 333.06 253.31 359.77 253.31 362.65 260.31"/><polygon class="cls-9" points="357.42 247.63 350.81 247.63 347.93 240.64 354.55 240.64 357.42 247.63"/><polygon class="cls-9" points="362.65 260.31 362.65 260.32 356.03 260.32 356.03 260.31 353.16 253.31 359.77 253.31 362.65 260.31"/><path class="cls-4" d="M71.66,107.6a7,7,0,0,0,7-6,13.14,13.14,0,0,0,.13-1.89,14,14,0,0,0-14-14c-.31,0-.63,0-.94,0A14.83,14.83,0,0,0,34.29,87c0,.36,0,.72,0,1.08a14.67,14.67,0,0,0-7.91-1.86A14.86,14.86,0,0,0,12.33,100c0,.06,0,.12,0,.18a7.07,7.07,0,0,0,7.09,7.44Z"/><path class="cls-4" d="M404.79,118.56c11,0,11.65-16.61.63-17.15l-.91,0a18.39,18.39,0,0,0-5.64.88,18.94,18.94,0,0,0-37.47.6,17.51,17.51,0,0,0-11.9-1.16c-9.65,2.49-7.62,16.85,2.34,16.85Z"/><path class="cls-4" d="M272.23,36.71c11,0,11.65-16.61.63-17.14-.3,0-.61,0-.91,0a18.44,18.44,0,0,0-5.64.88,18.93,18.93,0,0,0-37.45.6,17.3,17.3,0,0,0-7.53-1.71,17.5,17.5,0,0,0-4.37.55c-9.65,2.48-7.62,16.84,2.34,16.84Z"/><circle class="cls-8" cx="96.55" cy="40.95" r="26.45"/><path class="cls-17" d="M96.76,14.5a26.45,26.45,0,0,1-14.5,48.57H82A26.45,26.45,0,1,0,96.76,14.5Z"/><rect class="cls-2" x="4.14" y="282.77" width="428.96" height="2.47" rx="1.24" ry="1.24"/><rect class="cls-2" x="22.62" y="286.71" width="385.1" height="2.47" rx="1.24" ry="1.24"/><rect class="cls-2" x="4.82" y="290.65" width="333.66" height="2.47" rx="1.24" ry="1.24"/><rect class="cls-2" x="84.23" y="294.58" width="236.55" height="2.47" rx="1.24" ry="1.24"/><rect class="cls-2" x="157.73" y="298.52" width="214.42" height="2.68" rx="1.34" ry="1.34"/><rect class="cls-2" x="183.16" y="302.67" width="97.01" height="2.68" rx="1.22" ry="1.22"/></g></g></svg>