<svg id="Camada_1" data-name="Camada 1" xmlns="http://www.w3.org/2000/svg" viewBox="0 0 139.75 54"><defs><style>.cls-1,.cls-2{fill:#fff;}.cls-1{fill-rule:evenodd;}</style></defs><title>Logo_SME_Ok_BRANCO</title><path class="cls-1" d="M6.05,33.55l0,0c-.59-.09-1.19-.14-1.77-.28l-.07,0v0a7,7,0,0,1,1.37,0,1.8,1.8,0,0,1,.5.3,0,0,0,0,1,0,0Z"/><path class="cls-2" d="M23.3,23.94s3.32,1.95,3,4.86a7.07,7.07,0,0,0-2.94-4.48c-.43-.4-.09-.38-.09-.38Z"/><path class="cls-1" d="M6.16,33.4l-.09-.08-.29-.21,0-.13c0-.53,0-1.07,0-1.6a1.91,1.91,0,0,1,.21.47A.38.38,0,0,0,6,32a2.53,2.53,0,0,0,0,.91c.06.17.11.34.18.51v0Z"/><path class="cls-1" d="M6.38,33.4v-.12A2.42,2.42,0,0,1,7.22,32L7,32.58c-.14.19-.46.34-.53.57a.66.66,0,0,0-.11.24Z"/><path class="cls-1" d="M6.23,33.09l-.06-.2c0-.43.37-.77.65-1.05l.32-.28.37-.37L7.65,31l0,.07a.66.66,0,0,0,0,.14,1.76,1.76,0,0,1-.27.4c-.27.28-.57.57-.82.87l-.22.32s-.05.09-.07.14l-.06.17Z"/><path class="cls-1" d="M4.11,33A.82.82,0,0,1,3.85,33l-1.13-.61.84.16.3,0,.92,0,.1,0,.54.48c-.43,0-.87,0-1.31,0Z"/><path class="cls-1" d="M5.58,33l-.31-.29a.77.77,0,0,1,0-.15c0-.7-.07-1.41-.1-2.1.12.2.24.4.37.6l.06.21c0,.56,0,1.14,0,1.71h0Z"/><path class="cls-1" d="M5.08,32.5,5,32.43A3.89,3.89,0,0,1,4.53,32c-.08,0-.06-.23-.07-.31l0-.5a9.79,9.79,0,0,1,.08-1.33,5.89,5.89,0,0,0,0-.84,1.49,1.49,0,0,1,0-.21l.19.18a.69.69,0,0,0,.13.11A4.83,4.83,0,0,1,5,30.23c0,.76.07,1.51.1,2.27Z"/><path class="cls-1" d="M6.1,32.46c0-.11,0-.22,0-.33a2.14,2.14,0,0,1,.36-.62l.62-.67a1.64,1.64,0,0,0,.29-.4h0c0,.08.06.17.1.26h0a.49.49,0,0,0,0,.12.89.89,0,0,1-.27.39c-.28.28-.6.55-.87.83a.22.22,0,0,0,0,.08,1,1,0,0,0-.23.34Z"/><path class="cls-1" d="M3.92,32.4c-.48,0-1-.16-1.44-.25a.6.6,0,0,0-.22-.41,2.26,2.26,0,0,0-.35-.17,1.12,1.12,0,0,0-.25-.28,2.69,2.69,0,0,1,.54.26,3.15,3.15,0,0,0,.55.11l.28.1.54.1a2.21,2.21,0,0,1,.68.12l.41.38-.74,0Z"/><path class="cls-1" d="M4.3,31.79s-.11-.09-.13-.15l-.26-.27a.42.42,0,0,0-.12-.14l0-.29a7.11,7.11,0,0,1,0-1.22l.12-.6a7.22,7.22,0,0,0,0-.93l.32.34a1.87,1.87,0,0,1,.16.77c0,.47-.08.94-.1,1.4s0,.73,0,1.09Z"/><path class="cls-1" d="M4,31.75c-.28,0-.56-.08-.83-.13s-.33-.11-.5-.15a2.11,2.11,0,0,1-.35,0c-.29-.19-.62-.31-.92-.48l-.15-.26a2,2,0,0,1-.2-.47c.09,0,.17.1.26.15l.77.34,1.32.38.1.05c.16.21.35.42.52.61Z"/><path class="cls-1" d="M6.21,31.62,6.27,31a1.07,1.07,0,0,1,.07-.15A3,3,0,0,1,7,30.2a3.18,3.18,0,0,0,.26-.35c0,.08,0,.16.07.24a.92.92,0,0,1,0,.28l-.12.2-.44.48a2.43,2.43,0,0,0-.49.57Z"/><path class="cls-1" d="M6,31.55a.93.93,0,0,1,0-.1c-.25-.43-.54-.84-.78-1.28a.94.94,0,0,0-.1-.23v-.19c.1.14.2.3.29.45a5.76,5.76,0,0,0,.67,1.15,1.2,1.2,0,0,0,0,.2Z"/><path class="cls-1" d="M6.09,31.11c-.25-.37-.42-.79-.64-1.17l-.21-.31-.18-.2L5,29,5,29c0-.18.07-.37.11-.55h0a3.49,3.49,0,0,0,.59,1.15,7.65,7.65,0,0,1,.36,1.05s0,.08,0,.12a2.43,2.43,0,0,1,0,.37Z"/><path class="cls-1" d="M3.6,31s-.12-.19-.16-.2a3,3,0,0,1-.23-.3s-.09-.16-.14-.17A.47.47,0,0,1,3,30.24a4.58,4.58,0,0,1,0-.74,19.13,19.13,0,0,0,.25-2l0,0,.3.35c.1.07.09.22.1.33s0,.48,0,.72a6.68,6.68,0,0,1-.13.78l0,.28v1Z"/><path class="cls-1" d="M3.26,30.87l-1-.29A5,5,0,0,1,1,30l-.09-.08a1.2,1.2,0,0,1-.1-.62,6.29,6.29,0,0,1,.7.32l.33.23.26.13.2.06.3.07.18.12a2.73,2.73,0,0,0,.45.62v0Z"/><path class="cls-1" d="M6.28,30.59a3.32,3.32,0,0,1,.13-.7,2.4,2.4,0,0,1,.16-.27A3.64,3.64,0,0,0,7,29.09c0,.09,0,.19.07.29h0l0,.26c-.06.3-.28.44-.49.65-.12.05-.21.2-.31.28a0,0,0,0,0,0,0Z"/><path class="cls-1" d="M6.17,30.25a5.05,5.05,0,0,0-.27-.74l-.25-.38a1.8,1.8,0,0,1-.34-1.42,1.56,1.56,0,0,0,.22-.4h0c.06.33.13.66.19,1,0,.06,0,.13.07.2a.57.57,0,0,1,.08.13,2.22,2.22,0,0,1,.38.37l0,.09a.76.76,0,0,0,0,.15,2.38,2.38,0,0,0,0,.26l-.09.75Z"/><path class="cls-1" d="M2.64,29.93l-.36-.08A3,3,0,0,0,2,29.7l-.22-.16a9,9,0,0,0-.94-.45,3,3,0,0,0-.18-.58.41.41,0,0,1,0-.11h0l.92.62.25.14.55.24s0,0,0,0,.17.31.26.47Z"/><path class="cls-1" d="M2.83,29.89l-.23-.43a.33.33,0,0,0-.07-.13,8.11,8.11,0,0,1,.2-1.84,3.13,3.13,0,0,0,0-.53c.12,0,.29.3.35.39a3.73,3.73,0,0,1,0,1,9.68,9.68,0,0,0-.2,1.54Z"/><path class="cls-1" d="M6.43,29.52c.13-.49.26-1,.38-1.46,0,.14.05.29.07.44a.84.84,0,0,1,0,.31,2,2,0,0,1-.5.71Z"/><path class="cls-1" d="M2.25,29.18c-.17-.09-.36-.17-.52-.27-.36-.24-.71-.5-1.09-.71,0-.18,0-.35,0-.53h0c.37.23.73.5,1.1.72l.42.59c0,.06.06.12.09.19Z"/><path class="cls-1" d="M2.35,28.94a3.51,3.51,0,0,1-.27-.4L2,28.36,2,28c0-.46-.05-.91-.05-1.37a.79.79,0,0,1,0-.13c.14.09.3.13.44.21l.09.06a1.63,1.63,0,0,1,.06.45c0,.56-.2,1.12-.23,1.68Z"/><path class="cls-1" d="M6.38,28.84a2.52,2.52,0,0,0-.3-.27L6,28.41a7,7,0,0,1-.24-1c0-.17,0-.33-.08-.5s0-.16,0-.23a1.74,1.74,0,0,1,.28-.32,2.79,2.79,0,0,0,.07.4,5.69,5.69,0,0,1,.4,2.11Z"/><path class="cls-1" d="M6.54,28.41v-.15a10,10,0,0,0-.4-1.61c0-.1,0-.19,0-.28v-.32l.25-.67c0,.11,0,.22,0,.34.07.27.18.54.27.8a1.94,1.94,0,0,0,0,.2l.06.91c-.07.26-.14.52-.22.78Z"/><path class="cls-1" d="M1.83,28.19,1.7,28c-.12-.27-.21-.56-.31-.83L1.45,27l0-.32a1.67,1.67,0,0,1,0-.39l.39.19,0,.17a2.53,2.53,0,0,0,0,.28c0,.36.06.73.06,1.09l0,.19Z"/><path class="cls-1" d="M1.51,28c-.06-.07-.2-.11-.25-.18l-.33-.21a1,1,0,0,0-.28-.16q0-.32,0-.63l.12.08a3.91,3.91,0,0,0,.36.35l.12.07c.08.23.16.45.25.68Z"/><path class="cls-1" d="M1.18,27.08s-.09-.09-.12-.14a.86.86,0,0,0-.37-.26,2.88,2.88,0,0,1,0-.59,2.09,2.09,0,0,0-.08-.5h0l.18.55c.05.17.09.35.14.52a1.92,1.92,0,0,0,.18.35.64.64,0,0,1,0,.07Z"/><path class="cls-1" d="M1.3,26.9l-.16-.29a9.35,9.35,0,0,0-.35-1.14,2.43,2.43,0,0,0,.14.2c0,.06.08.12.11.16l.1.19.14.14a3.66,3.66,0,0,1,0,.74Z"/><path class="cls-1" d="M1.74,26.24h0Z"/><path class="cls-1" d="M6.69,26.14c0-.14-.09-.27-.13-.4a1.18,1.18,0,0,1,0-.56L6.69,25v1.12Z"/><path class="cls-1" d="M3,25.14l-.12-.35a1,1,0,0,1,0-.55,1.27,1.27,0,0,1,.28-.44.87.87,0,0,0,.14.31.43.43,0,0,0,0,.11s0,0,0,.07a1.56,1.56,0,0,1-.16.2.65.65,0,0,0-.09.16l0,.11a1.42,1.42,0,0,0,0,.35l-.07,0Z"/><path class="cls-1" d="M3.56,25.08a.75.75,0,0,0-.3,0c0-.05,0-.08,0-.13v-.08c0-.23.24-.37.3-.58,0,.06,0,.13.08.2s-.05.41-.05.62Z"/><path class="cls-1" d="M3.86,25.07c0-.13.06-.27.1-.4.23-.51.93-.76,1.39-1s.75-.35,1.12-.54L6.7,23a.17.17,0,0,0,0,.07c-.22.15-.43.3-.63.46a3.15,3.15,0,0,0-.35.38,6.13,6.13,0,0,1-1.38.8,1.63,1.63,0,0,0-.49.37Z"/><path class="cls-1" d="M2.83,25,2.76,25a6.8,6.8,0,0,1-.82-.69A1.46,1.46,0,0,0,1.72,24l-.46-.4c-.06-.08-.16-.17-.14-.28.07.06.12.16.21.22s.1.1.13.12l.69.43a3.59,3.59,0,0,1,.35.32c.09.15.17.31.26.48s0,.12.07.19Z"/><path class="cls-1" d="M3.77,24.73c0-.12,0-.22,0-.33A.58.58,0,0,0,3.46,24a.75.75,0,0,1-.1-.36V23a2.68,2.68,0,0,1,.13-.34c.07.21.18.42.27.63s.06.21.1.32,0,.27.06.41v.33l-.15.41Z"/><path class="cls-1" d="M2.73,24.43a1.36,1.36,0,0,0-.13-.24,2.5,2.5,0,0,1-.06-.38A6.76,6.76,0,0,1,2.87,23l.58-1.1a2.84,2.84,0,0,1-.06.5c-.07.16-.13.3-.19.46s0,.42-.05.63c0,.05,0,.1-.07.16a1.16,1.16,0,0,0-.34.75Z"/><path class="cls-1" d="M4.2,24.12s0,0,0,0l.18-.32.2-.18L5,23.33l1.4-.53a2.61,2.61,0,0,1,.28-.17c0,.21-.24.33-.4.42A18.15,18.15,0,0,0,4.2,24.12Z"/><path class="cls-1" d="M2.4,24a.61.61,0,0,0-.16-.12l-.1-.07-.53-.32-.17-.14c-.14-.16-.29-.33-.43-.47a2.24,2.24,0,0,0-.23-.34.63.63,0,0,1-.12-.11l-.09-.21c0-.17-.09-.35-.12-.51v0a8.84,8.84,0,0,1,.6.77,1.9,1.9,0,0,0,.21.19l.08.09a7.08,7.08,0,0,1,.79.66c.07.15.15.3.23.44a.85.85,0,0,0,0,.17Z"/><path class="cls-1" d="M4.08,24a3.46,3.46,0,0,0-.16-.79,3.82,3.82,0,0,1-.33-.93l0-.37,0-.24c.09-.19.19-.4.27-.6.1.1,0,.47,0,.57a2.44,2.44,0,0,0,0,.27,6,6,0,0,0,.26.66c0,.07,0,.15.07.23a5.69,5.69,0,0,1,.08.83c-.06.12-.13.24-.19.37Z"/><path class="cls-1" d="M2.43,23.62c-.06-.09-.1-.21-.17-.3l0-.28a6.31,6.31,0,0,1,.33-.75l.54-1a5,5,0,0,0,.2-.54l.06-.41s.07-.3.14-.26.2.35.29.53a1.81,1.81,0,0,1-.17.59c-.38.77-.81,1.53-1.16,2.33l0,.09Z"/><path class="cls-1" d="M4.6,23.37a1.43,1.43,0,0,1,.25-.51L5,22.73l.13-.06,1.18-.46A1.33,1.33,0,0,0,6.7,22c0,.13,0,.26,0,.39a1.11,1.11,0,0,1-.46.34,12,12,0,0,0-1.54.6l-.11.07Z"/><path class="cls-1" d="M4.43,23.32a6.51,6.51,0,0,0-.13-.77c-.1-.24-.19-.47-.29-.7V21.7a3.44,3.44,0,0,0,0-.45,1.49,1.49,0,0,0-.12-.46c0-.06,0-.13,0-.2l.13-.1.13-.15c0,.09,0,.19,0,.29,0,.27.18.54.24.81a3.38,3.38,0,0,0,.11,1.26,1.35,1.35,0,0,1-.18.62Z"/><path class="cls-1" d="M2.07,23.12,1.93,23l-.36-.27a.91.91,0,0,0-.21-.18c0-.05-.12-.09-.13-.15S1,22.18,1,22.13H1a1.08,1.08,0,0,0-.16-.2c0-.1-.18-.17-.22-.27a3.17,3.17,0,0,1-.36-.46A1.75,1.75,0,0,1,.2,20.4a1.47,1.47,0,0,1,.31.3c.23.28.45.56.68.83s.43.46.64.68l.13.28c0,.16.07.33.1.5a.53.53,0,0,0,0,.13Z"/><path class="cls-1" d="M2.18,22.71c0-.1-.05-.21-.07-.31S2,22.17,2,22.07a3.19,3.19,0,0,1,.13-.44c.3-.66.75-1.25,1.09-1.89l.09-.22v0c0,.12.09.24.14.37-.21,0-.28.72-.3.83L3.07,21c-.28.59-.61,1.16-.89,1.75Z"/><path class="cls-1" d="M4.76,22.64c0-.19-.08-.38-.11-.57v-.7a5.2,5.2,0,0,0-.21-.67c0-.09,0-.17,0-.25v-.3a1.21,1.21,0,0,1,.34-.77,4.66,4.66,0,0,0,0,1,8.9,8.9,0,0,1,.29,1.34,1.74,1.74,0,0,1-.13.78l-.18.15Z"/><path class="cls-1" d="M5.21,22.47a2.59,2.59,0,0,1,.14-.29A1.59,1.59,0,0,1,5.5,22a2.18,2.18,0,0,1,.88-.42l.24-.14.09-.08v.29a.9.9,0,0,1-.17.26,6.12,6.12,0,0,1-1.33.59Z"/><path class="cls-1" d="M5.22,22.07v-.41a6.41,6.41,0,0,0-.28-1.3L4.88,20V19.6a1.43,1.43,0,0,1,.45-1c0,.11,0,.22,0,.33l.09.69c0,.19,0,.39,0,.59s.13.55.19.84v.29c0,.06,0,.13,0,.19s-.21.32-.31.48l0,.06Z"/><path class="cls-1" d="M1.82,21.94c-.15-.16-.3-.32-.46-.47a1.27,1.27,0,0,0-.22-.25c0-.07-.12-.12-.14-.18s-.15-.24-.23-.28-.11-.14-.14-.19l-.19-.2-.23-.15a5,5,0,0,1,.11-.76l0-.05c.06,0,.29.48.31.54s.23.28.35.42.12.14.18.19.13.09.14.14.12.13.19.18a.74.74,0,0,0,.12.13,5,5,0,0,0,.22.75l0,.18Z"/><path class="cls-1" d="M5.72,21.62a2.55,2.55,0,0,1,.49-.72,2.14,2.14,0,0,0,.5-.32v.28a2.29,2.29,0,0,0-.08.28,1.14,1.14,0,0,1-.15.16l-.1.07-.66.25Z"/><path class="cls-1" d="M2,21.52c-.06-.19-.11-.38-.16-.57a2,2,0,0,1,.33-.81A12.81,12.81,0,0,0,3,18.67H3c.05.18.11.36.17.55a1.86,1.86,0,0,1-.22.61l-.6,1a5,5,0,0,0-.39.72Z"/><path class="cls-1" d="M5.79,21.16c0-.36-.18-.71-.21-1.08v-.42c0-.26-.07-.53-.1-.78a1,1,0,0,1,.11-.54,1.09,1.09,0,0,1,.25-.23S5.92,18,6,18l0,.18c0,.4,0,.81,0,1.21s.09.61.14.91a2.56,2.56,0,0,1,0,.39c-.1.16-.19.32-.28.48Z"/><path class="cls-1" d="M1.6,20.73c-.15-.15-.29-.3-.44-.44S1,20.18,1,20.12a2.69,2.69,0,0,1-.43-.68s-.15-.18-.15-.23a2.46,2.46,0,0,0,.15-.53c.1.17.2.34.31.51s.26.32.4.49a1.21,1.21,0,0,1,.2.19h0c0,.22.05.44.08.67v.18Z"/><path class="cls-1" d="M6.28,20.66l.19-.39L6.71,20v.23a.65.65,0,0,1-.43.48Z"/><path class="cls-1" d="M1.75,20.48a3.71,3.71,0,0,1-.05-.67c.22-.73.75-1.34,1-2a.43.43,0,0,1,0-.05h0l.15.56a1.48,1.48,0,0,1-.22.65L1.9,20.19l-.15.29Z"/><path class="cls-1" d="M6.27,20.3c0-.32-.11-.65-.15-1s0-.44,0-.67,0-.28,0-.43a1.89,1.89,0,0,1,.1-.41l.21-.16a5,5,0,0,1,0,.77v.32a4.45,4.45,0,0,1,0,1.15l-.06.17a2.53,2.53,0,0,1-.13.22v0Z"/><path class="cls-1" d="M6.65,19.73a14.06,14.06,0,0,1-.06-1.45c0-.25,0-.5,0-.76a.91.91,0,0,0,.16-.11v2.24s-.05.06-.08.08Z"/><path class="cls-1" d="M1.5,19.62a1,1,0,0,1-.24-.25.47.47,0,0,0-.1-.1,3.81,3.81,0,0,1-.33-.55c0-.07-.09-.15-.13-.21s-.06-.08-.08-.1c0-.24.08-.46.12-.68.16.15.27.36.42.51a1.71,1.71,0,0,0,.13.23.87.87,0,0,0,.11.32c0,.28.08.55.1.83Z"/><path class="cls-1" d="M1.65,19.44l-.09-.76a1.55,1.55,0,0,0,.31-.54A5.26,5.26,0,0,1,2.32,17l.16.23a1.71,1.71,0,0,1,.13.23,1.67,1.67,0,0,1-.23.67l-.61,1.08c0,.08-.07.17-.11.25Z"/><path class="cls-1" d="M1.42,18.37a1.22,1.22,0,0,0-.17-.29c-.08,0-.13-.23-.22-.27s-.19-.2-.23-.29l0,0c0-.1,0-.2.07-.3A2.29,2.29,0,0,1,.94,17c.15.21.24.54.45.7,0,.13,0,.26,0,.4a1.66,1.66,0,0,1,0,.32Z"/><path class="cls-1" d="M1.61,18.31l-.06-.93a.06.06,0,0,1,0,0A1.05,1.05,0,0,0,1.79,17c0-.15.09-.29.13-.43l.28.3a8.42,8.42,0,0,0-.59,1.46Z"/><path class="cls-1" d="M1.38,17.38a4,4,0,0,0-.28-.5.94.94,0,0,0-.1-.1,3.45,3.45,0,0,1,.14-.42A1,1,0,0,0,1.32,16h0a7,7,0,0,0,0,.79l.06.23c0,.11,0,.22,0,.33Z"/><path class="cls-1" d="M1.6,17a2.17,2.17,0,0,1-.07-.24c0-.23,0-.47,0-.7h0a1.12,1.12,0,0,0,.29.36l-.06.16c-.05.14-.09.28-.13.42Z"/><path class="cls-1" d="M4.46,16.5c0-.23,0-.46,0-.7a1.4,1.4,0,0,1-.15-.33c0-.12,0-.23.06-.35l.22.41a.88.88,0,0,1,.08.55l-.15.42Z"/><path class="cls-1" d="M5.14,16.47l-.37,0c0-.07.13-.12.17-.15a1,1,0,0,1,.52.17Z"/><path class="cls-1" d="M5.69,16.45a.73.73,0,0,0-.48-.28h0l.21-.07a1.87,1.87,0,0,1,.82.2h0l-.37.12a.57.57,0,0,0-.18,0Z"/><path class="cls-1" d="M4.28,16.43,4,16c-.09,0-.16-.3-.25-.35l-.16-.26c-.09-.26-.21-.55-.28-.82l.41.45a5.34,5.34,0,0,1,.35.48l.17.34,0,.56Z"/><path class="cls-1" d="M4.75,16.21A.36.36,0,0,1,4.94,16v0l.49-.26A7.79,7.79,0,0,0,6.73,15a.6.6,0,0,1-.06.22l-.15.17-.42.27L5.19,16a4.51,4.51,0,0,0-.44.22Z"/><path class="cls-1" d="M6.4,16.21A1,1,0,0,0,5.72,16h0l.17-.07.19,0a1.56,1.56,0,0,1,.57,0c0,.12-.16.19-.25.26Z"/><path class="cls-1" d="M1.33,16v0h0v0Z"/><path class="cls-1" d="M6.73,15.8c-.1-.09-.37-.05-.5-.05a1.86,1.86,0,0,0,.5-.37,2.93,2.93,0,0,1,0,.42Z"/><path class="cls-1" d="M4.93,15.78a.93.93,0,0,1,.22-.43l.23-.13a9,9,0,0,0,1.36-.67v.14a1.25,1.25,0,0,1-.23.23c-.42.27-.89.49-1.34.72l-.24.14Z"/><path class="cls-1" d="M4.78,15.68a1.76,1.76,0,0,0-.17-.37c-.07-.15-.17-.31-.23-.48v-.48a2.08,2.08,0,0,1,.28-.56c0,.05,0,.11,0,.17a5.66,5.66,0,0,1,.25,1.29,2.72,2.72,0,0,1-.15.43Z"/><path class="cls-1" d="M4.12,15.28A2.26,2.26,0,0,0,3.91,15c-.15-.15-.31-.34-.45-.51l0-.06c-.21-.18-.09-.47-.06-.7l0,0,.51.71a1.46,1.46,0,0,1,.28.59,2.56,2.56,0,0,0,0,.27Z"/><path class="cls-1" d="M5.21,15.12a1.24,1.24,0,0,1,.15-.33,1.46,1.46,0,0,1,.33-.22l.88-.32.18-.08c0,.05,0,.1,0,.15a1.94,1.94,0,0,1-.43.3c-.37.15-.74.32-1.1.5Z"/><path class="cls-1" d="M5.08,15a8.6,8.6,0,0,0-.19-.88,1.16,1.16,0,0,1,0-.61c.08-.15.16-.3.25-.45,0,.36.07.72.11,1.08a1.34,1.34,0,0,1-.12.86Z"/><path class="cls-1" d="M4.21,14.62a4.56,4.56,0,0,0-.4-.61,1.37,1.37,0,0,1-.15-.21s-.06-.1-.1-.11,0,0,0,0a1.71,1.71,0,0,1-.12-.23,1.34,1.34,0,0,1,0-.21l.15-.37.24.35a5.15,5.15,0,0,1,.36.7c0,.06,0,.14,0,.21v.51Z"/><path class="cls-1" d="M5.5,14.48a1.78,1.78,0,0,1,.19-.36l.16-.1L6,14l.58-.18.18-.08c0,.09,0,.17,0,.26a3.46,3.46,0,0,1-.89.36l-.35.16Z"/><path class="cls-1" d="M5.38,14.32c0-.42-.09-.83-.13-1.25a1,1,0,0,1,0-.42l.25-.25c0,.44,0,.89,0,1.33a2,2,0,0,0,0,.24c0,.11-.11.23-.16.35Z"/><path class="cls-1" d="M4.39,13.91l0-.47,0-.12c.08,0,.2-.17.29-.2s.15-.16.19-.16c-.16.32-.36.63-.54.95Z"/><path class="cls-1" d="M5.81,13.86a.82.82,0,0,1,.25-.38l.1-.05c.19-.06.41-.08.6-.16a.78.78,0,0,1,0,.22l-.16.1a5,5,0,0,0-.77.27Z"/><path class="cls-1" d="M4.25,13.6c-.07-.11-.13-.23-.19-.34l-.4-.6a.88.88,0,0,1-.05-.15c.07-.17.15-.34.23-.51h0a7.55,7.55,0,0,1,.36,1.14,3.57,3.57,0,0,1,0,.46Z"/><path class="cls-1" d="M5.74,13.6c0-.42,0-.84,0-1.26a.57.57,0,0,1,0-.14L6,12a3,3,0,0,1,0,1.19,2.24,2.24,0,0,0-.22.4l0,0Z"/><path class="cls-1" d="M6.14,13.26c0-.07.11-.16.15-.22a1.11,1.11,0,0,1,.38-.22l.08-.05v.3l-.19.09-.42.1Z"/><path class="cls-1" d="M4.51,13.07c0-.15,0-.29.07-.44s.23-.24.34-.36.4-.35.58-.53h0c0,.1.06.22.09.33l-.49.49-.6.51Z"/><path class="cls-1" d="M4.35,13c-.1-.41-.26-.82-.39-1.23a.62.62,0,0,1,.18-.3c.07.19.15.38.22.58a1.62,1.62,0,0,1,0,.95Z"/><path class="cls-1" d="M6.22,12.79c0-.32,0-.65,0-1a1.32,1.32,0,0,1,.38-.25c0,.3-.07.58-.1.88l-.23.33Z"/><path class="cls-1" d="M6.48,12.72a2.73,2.73,0,0,1,.4-.56L7,12.11l.4-.08c0,.1,0,.22,0,.33H6.76c0,.05,0,.11,0,.17a.8.8,0,0,1-.27.18Z"/><path class="cls-1" d="M4.64,12.31c.05-.15.11-.29.17-.43a5.86,5.86,0,0,1,.47-.54h0c0,.06.12.18.12.24-.23.26-.53.48-.77.73Z"/><path class="cls-1" d="M6.65,12.16c0-.22,0-.45.08-.67l.12-.07.39-.12h0L7,11.6l-.39.56Z"/><path class="cls-1" d="M4.54,12.07c-.06-.27-.19-.53-.27-.8A.66.66,0,0,1,4.48,11c.06.25.13.49.19.74l-.12.29Z"/><path class="cls-1" d="M7,11.92l.37-.56,0,.19,0,.23c-.1.12-.22.12-.37.14Z"/><path class="cls-1" d="M4.77,11.48l-.15-.58.29-.27a5,5,0,0,0-.06.54c0,.1,0,.21-.08.31Z"/><path class="cls-1" d="M5,11.43a5.13,5.13,0,0,0,.09-.67l.07.15a2,2,0,0,0,.07.23c0,.07-.18.23-.23.29Z"/><path class="cls-1" d="M27.73,33.46a2.19,2.19,0,0,1,.42-.28l.37-.09,1.08,0v0a2.45,2.45,0,0,1-.41.11l-1.45.21Z"/><path class="cls-1" d="M27.63,33.32a4.35,4.35,0,0,0,.23-.78v-.21c0-.18,0-.35,0-.52A1.53,1.53,0,0,1,28,31.3c0,.52,0,1.05,0,1.58A.54.54,0,0,0,28,33a2.24,2.24,0,0,0-.38.29Z"/><path class="cls-1" d="M27.41,33.32a1.76,1.76,0,0,0-.24-.45,1.15,1.15,0,0,1-.41-.41,3.35,3.35,0,0,1-.16-.52c.35.4.83.8.83,1.38Z"/><path class="cls-1" d="M27.2,33.27v0h0v0Z"/><path class="cls-1" d="M27.56,33l-.1-.27-.16-.26s-.23-.29-.27-.31-.1-.11-.13-.15l-.4-.41s-.07-.07-.09-.12-.13-.13-.15-.17a1.31,1.31,0,0,0,0-.15h0c.29.32.64.6.93.91l.15.19c.07.12.13.25.19.38a1.41,1.41,0,0,0,0,.2,1.22,1.22,0,0,0-.07.17Z"/><path class="cls-1" d="M28.36,33a2.41,2.41,0,0,1,.41-.37l.16-.12a2.9,2.9,0,0,1,.51,0c.21,0,.44,0,.65,0l.95-.17-1.11.61a2.84,2.84,0,0,0-.31.06l-1,0-.24,0Z"/><path class="cls-1" d="M28.2,32.86a14.94,14.94,0,0,1,0-1.77.58.58,0,0,0,0-.14c.12-.21.24-.41.38-.61,0,.73-.05,1.48-.12,2.21a1.88,1.88,0,0,1-.32.31Z"/><path class="cls-1" d="M28.7,32.42c0-1,.06-2.08.2-3.11,0-.1.05-.2.08-.3a3.74,3.74,0,0,0,.31-.27c0,.15,0,.29,0,.44,0,.4,0,.8.08,1.2a9.19,9.19,0,0,1,0,1.05l-.06.48-.57.51Z"/><path class="cls-1" d="M27.7,32.38l-.13-.23s-.17-.23-.21-.24-.11-.11-.15-.16-.09-.13-.14-.14l-.24-.23s-.09-.08-.12-.1a3,3,0,0,1-.3-.32c0-.12.08-.24.13-.36l.69.74,0,.05a2.1,2.1,0,0,1,.39.62,2.2,2.2,0,0,1,.05.37Z"/><path class="cls-1" d="M29.63,32.32l-.51,0c.13-.12.26-.26.4-.37l.12-.06a8.14,8.14,0,0,0,1.2-.21l.23-.08a1.45,1.45,0,0,0,.47-.09,4.73,4.73,0,0,1,.55-.28c-.07.07-.14.13-.2.2l-.06.1c-.3.13-.51.22-.56.57-.46.09-.93.2-1.39.26Z"/><path class="cls-1" d="M29.47,31.71a10.75,10.75,0,0,0,0-1.39c0-.2,0-.4-.06-.6a2.45,2.45,0,0,1,.13-1.26c.11-.11.22-.23.32-.35l0,.45a5.43,5.43,0,0,0,0,.57c0,.19.07.39.11.58a6.13,6.13,0,0,1,0,1.42,7,7,0,0,1-.51.58Z"/><path class="cls-1" d="M29.75,31.67c.14-.21.34-.4.51-.61l.2-.1.95-.26a6,6,0,0,0,1.29-.58c-.05.15-.13.31-.19.46a2.69,2.69,0,0,0-.16.29h0c-.29.17-.61.29-.9.47a1.69,1.69,0,0,0-.45.07c-.19.06-.37.12-.56.16l-.65.09Z"/><path class="cls-1" d="M27.59,31.53a3.28,3.28,0,0,0-.42-.5s-.4-.43-.43-.45-.09-.12-.12-.17a1.42,1.42,0,0,1,.12-.4,1.86,1.86,0,0,1,.31.28l.18.15s.11.09.13.15a1.05,1.05,0,0,1,.17.29c0,.09,0,.18,0,.28s0,.25.05.37Z"/><path class="cls-1" d="M27.76,31.46l0-.18.18-.23a11.53,11.53,0,0,1,.76-1.38,1.28,1.28,0,0,1,0,.19c0,.06-.05.11-.07.17-.21.42-.48.83-.73,1.23a1.86,1.86,0,0,0-.1.2Z"/><path class="cls-1" d="M27.71,31a1,1,0,0,1,0-.25.82.82,0,0,0,0-.22A8.52,8.52,0,0,1,28,29.7a1.51,1.51,0,0,1,.11-.22c.12-.21.25-.41.37-.61s.09-.21.14-.31,0-.15.07-.24a3.86,3.86,0,0,0,.12.59s0,0,0,.06l-.09.39-.18.2-.24.37-.42.81a2.75,2.75,0,0,0-.17.29Z"/><path class="cls-1" d="M30.16,30.92a8.15,8.15,0,0,0,0-1.21c0-.23-.09-.46-.13-.69a5.32,5.32,0,0,1,.06-1.13,5.6,5.6,0,0,1,.4-.45c0,.74.18,1.48.27,2.2v.53a3.25,3.25,0,0,1-.23.29l-.13.18-.23.28Z"/><path class="cls-1" d="M30.5,30.78c.11-.18.27-.36.4-.53s.39-.27.64-.33a2.69,2.69,0,0,0,.57-.34l.53-.27c.08,0,.16-.1.25-.1v.3c0,.11-.07.21-.1.32a2.93,2.93,0,0,1-.63.4,2.53,2.53,0,0,0-.29.14l-.56.19-.81.22Z"/><path class="cls-1" d="M27.52,30.51l-.39-.38-.06,0c-.06-.11-.2-.18-.26-.3v0c.05-.18.09-.36.14-.54l.25.27c.05.09.12.18.18.27a.88.88,0,0,0,.05.15c0,.2.05.4.09.6Z"/><path class="cls-1" d="M27.63,30.17a8.3,8.3,0,0,0-.14-1,.5.5,0,0,1,.17-.4,1,1,0,0,0,.32-.34,2.15,2.15,0,0,0,.13-.57c.05-.21.09-.43.14-.65.06.18.19.34.26.51s0,.09,0,.14V28a2.65,2.65,0,0,1-.29.86c-.12.18-.23.36-.34.54a5.05,5.05,0,0,0-.27.74Z"/><path class="cls-1" d="M31.09,29.85l.28-.52.1,0a3.54,3.54,0,0,0,.73-.36l.87-.6h0v.11a4.23,4.23,0,0,0-.17.58l-.79.36a6.65,6.65,0,0,1-.56.36l-.22.06-.26.06Z"/><path class="cls-1" d="M30.92,29.81c0-.68-.18-1.36-.26-2,0-.14-.06-.45.05-.56a.92.92,0,0,1,.31-.34c0,.05,0,.08,0,.12,0,.71.23,1.41.23,2.12a.61.61,0,0,0,0,.14l-.3.55Z"/><path class="cls-1" d="M27.37,29.44a3.73,3.73,0,0,1-.26-.3A.5.5,0,0,1,27,29a3.47,3.47,0,0,1,.12-.53l0,.13c.07.29.16.58.22.87Z"/><path class="cls-1" d="M31.48,29.1c0-.06.05-.11.07-.16.14-.22.29-.42.44-.63l1.05-.7h0v.53a8.44,8.44,0,0,0-.88.59,4.14,4.14,0,0,1-.72.38Z"/><path class="cls-1" d="M31.4,28.87a14.71,14.71,0,0,0-.22-1.46c0-.12,0-.24,0-.36a1.7,1.7,0,0,1,.06-.31,3.78,3.78,0,0,1,.53-.27,1.47,1.47,0,0,1,0,.47,4.58,4.58,0,0,0,0,1.28s0,0,0,.07l-.35.5,0,.08Z"/><path class="cls-1" d="M27.42,28.76c0-.17,0-.35,0-.52a9,9,0,0,1,.41-1.68c0-.11,0-.2,0-.31l.26.29c0,.07,0,.15,0,.22,0,.41-.15.82-.23,1.22a.81.81,0,0,1-.19.5l-.31.28Z"/><path class="cls-1" d="M27.25,28.32c0-.1,0-.2-.07-.31s.05-.35.07-.52,0-.54.07-.81,0-.49,0-.74l.08-.29c0-.12,0-.23,0-.35.09.23.17.46.26.68a3,3,0,0,1,0,.52l-.27.91c-.05.3-.12.61-.16.91Z"/><path class="cls-1" d="M31.91,28.11a3.69,3.69,0,0,1,0-1.1v-.45c0-.07,0-.12,0-.18l.39-.19,0,.36c0,.15,0,.4.09.52l-.3.83c0,.07-.09.14-.14.21Z"/><path class="cls-1" d="M29.62,27.58h0Z"/><path class="cls-1" d="M30.7,25.06s0,0,0,0a1,1,0,0,1,0-.17.7.7,0,0,0-.13-.45.35.35,0,0,1-.15-.32l.12-.24a.49.49,0,0,1,0-.11,1.55,1.55,0,0,1,.25.41c0,.14.1.43,0,.56a1.36,1.36,0,0,0-.1.36Z"/><path class="cls-1" d="M30.2,25c0-.15,0-.29,0-.43s0-.39.07-.39c0,.18.18.28.26.43a.35.35,0,0,0,0,.11.93.93,0,0,1,0,.24.75.75,0,0,0-.3,0Z"/><path class="cls-1" d="M29.9,25a2.06,2.06,0,0,0-.3-.29l-.53-.23c-.33-.21-.69-.42-1-.65-.05-.07-.11-.13-.16-.19l-.12-.15-.45-.34v-.08c.43.24.88.44,1.33.64a2.9,2.9,0,0,1,1.09.76,1.36,1.36,0,0,1,.16.53Z"/><path class="cls-1" d="M30.92,25a3.47,3.47,0,0,1,.33-.67l.21-.22.23-.17a4.42,4.42,0,0,0,.8-.56.86.86,0,0,1,.13-.14.58.58,0,0,1-.16.31l-.45.39a1.56,1.56,0,0,0-.16.2l-.06.13-.15.16-.29.23a3.57,3.57,0,0,0-.43.34Z"/><path class="cls-1" d="M30,24.67a3.26,3.26,0,0,0-.15-.44,5.07,5.07,0,0,1,0-.55,2.66,2.66,0,0,1,.28-.82l.11-.3a1.24,1.24,0,0,1,.14.38c0,.22,0,.45,0,.67s0,.14,0,.21l-.06.09c-.32.17-.31.43-.29.76Z"/><path class="cls-1" d="M31,24.35a1.16,1.16,0,0,0-.32-.72l-.07-.11a6.36,6.36,0,0,1-.08-.75l-.19-.45c0-.16,0-.31-.05-.46a16.07,16.07,0,0,1,.9,1.87,2.7,2.7,0,0,1-.06.41l-.12.21Z"/><path class="cls-1" d="M29.56,24c-.68-.5-1.52-.72-2.24-1.16V22.7l1.32.51.3.14a2.45,2.45,0,0,1,.37.26c.05.06.28.4.25.43Z"/><path class="cls-1" d="M31.35,24a.55.55,0,0,1,0-.17l.21-.39a7.34,7.34,0,0,1,1-.87l.38-.49.34-.39c-.05.21-.09.44-.16.65a2.26,2.26,0,0,1-.25.29l-.12.21a5.07,5.07,0,0,1-.65.66,5.43,5.43,0,0,0-.75.5Z"/><path class="cls-1" d="M29.69,23.91l-.18-.34a4,4,0,0,1,0-.69,2.46,2.46,0,0,1,.07-.29,8,8,0,0,0,.3-.82v-.19a2,2,0,0,1-.05-.26v-.18a.83.83,0,0,1,0-.15c.09.2.18.39.27.6l0,.22c0,.16,0,.33,0,.49a2.68,2.68,0,0,1-.07.27c-.11.28-.23.56-.32.84l-.06.27a2,2,0,0,1,0,.23Z"/><path class="cls-1" d="M31.32,23.55c-.05-.12-.1-.24-.14-.36-.26-.55-.55-1.09-.83-1.62a2.71,2.71,0,0,1-.37-1l.14-.25.15-.29a.59.59,0,0,1,.12.22,4.25,4.25,0,0,0,.14.71l.14.3A16.07,16.07,0,0,1,31.51,23a2.26,2.26,0,0,0,0,.26,3.65,3.65,0,0,0-.18.34Z"/><path class="cls-1" d="M29.17,23.29c-.09,0-.18-.1-.27-.15-.52-.22-1.08-.37-1.58-.63v-.45l.27.15.2.06c.29.11.59.22.87.35l.12.07c.08,0,.21.18.25.24l.08.23.06.13Z"/><path class="cls-1" d="M29.34,23.25a2.11,2.11,0,0,1-.18-.59,4.16,4.16,0,0,0,.13-.59,3.53,3.53,0,0,1,0-.86l.13-.35.06-.21c0-.13,0-.25.05-.37l.13.15.14.09c0,.07,0,.14,0,.2a1.27,1.27,0,0,0-.12.57,3.11,3.11,0,0,1,.06.44.5.5,0,0,0,0,.13,8.29,8.29,0,0,0-.31.83,3.57,3.57,0,0,0-.07.56Z"/><path class="cls-1" d="M31.67,23.05a5.43,5.43,0,0,1,.13-.68,3.37,3.37,0,0,1,.19-.32l.67-.72.56-.72a1.67,1.67,0,0,1,.31-.28,2.57,2.57,0,0,1-.06.78l-.16.23c-.12.08-.18.25-.29.34l-.31.39-.2.27a9.55,9.55,0,0,1-.84.71Z"/><path class="cls-1" d="M31.57,22.64c-.15-.37-.37-.74-.55-1.09a3.8,3.8,0,0,1-.38-.82l-.12-.63c0-.06-.11-.26-.18-.26a1.32,1.32,0,0,1,.13-.38h0a.09.09,0,0,0,0,.05c.26.57.63,1.09.94,1.64l.14.26.15.41c0,.07,0,.15,0,.22a1.45,1.45,0,0,0-.19.6Z"/><path class="cls-1" d="M29,22.57c-.05-.05-.12-.1-.16-.15l-.07-.16a1.74,1.74,0,0,1-.05-.22,3.47,3.47,0,0,1,0-.72c.05-.32.15-.62.23-.93a4.47,4.47,0,0,0,.08-.82l0-.25a1.33,1.33,0,0,1,.31,1.27c-.05.25-.17.48-.22.73a5.9,5.9,0,0,1,0,.94l-.09.31Z"/><path class="cls-1" d="M28.58,22.4s0,0,0,0a6.77,6.77,0,0,1-1.24-.52v-.43l.73.3.23.15a2.7,2.7,0,0,1,.3.52Z"/><path class="cls-1" d="M28.55,22l-.29-.46-.07-.16a.77.77,0,0,1,0-.15,5,5,0,0,1,.18-1c0-.06,0-.13,0-.19V19.6c0-.22.06-.44.08-.66s0-.28,0-.42a1.54,1.54,0,0,1,.25.32l.1.24c0,.09.05.19.07.29a2.46,2.46,0,0,0,0,.26,3.82,3.82,0,0,1-.06.68c-.07.24-.14.49-.2.73l-.09.61V22Z"/><path class="cls-1" d="M31.91,21.88l0-.19c.07-.24.14-.49.22-.72a.91.91,0,0,1,.11-.16,6.25,6.25,0,0,0,.81-.89c.11-.19.23-.38.34-.58h0c0,.28.09.55.14.82a.77.77,0,0,0-.4.33.47.47,0,0,0-.14.17l-.36.46-.69.74,0,0Z"/><path class="cls-1" d="M28.06,21.55l-.14-.07a2.73,2.73,0,0,1-.61-.26v-.54l.2.1a.91.91,0,0,1,.23.21l.33.55Z"/><path class="cls-1" d="M31.77,21.45c-.06-.12-.11-.25-.17-.36l-.61-1c-.08-.13-.16-.26-.23-.39s-.09-.2-.13-.29a.35.35,0,0,1,0-.13.49.49,0,0,1,0-.12,3.1,3.1,0,0,1,.18-.54.31.31,0,0,0,0,.08c.32.63.74,1.21,1.06,1.84a1.39,1.39,0,0,1,.1.33c-.05.19-.11.38-.16.56v0Z"/><path class="cls-1" d="M28,21.1c-.07-.14-.16-.28-.24-.41l0-.08a4.16,4.16,0,0,1,.11-1.31c0-.14,0-.29,0-.43l0-.75,0-.19a.3.3,0,0,1,.13.12c.09.07.16.16.25.23a2.52,2.52,0,0,1,0,1.28,5,5,0,0,1,0,.67c-.06.21-.11.42-.16.64l0,.23Z"/><path class="cls-1" d="M27.52,20.59l-.21-.11a2.71,2.71,0,0,1,0-.29c.06.13.13.27.2.4Z"/><path class="cls-1" d="M32,20.43a.93.93,0,0,1,0-.1c0-.07-.07-.14-.1-.2-.27-.46-.56-.91-.82-1.36a.38.38,0,0,0-.06-.13c0-.1-.07-.2-.1-.3a1.93,1.93,0,0,1,.16-.7c.25.75.8,1.37,1,2.14a4.2,4.2,0,0,1,0,.51c0,.05,0,.09,0,.14Z"/><path class="cls-1" d="M27.53,20.23c-.05-.08-.09-.16-.13-.24s0-.13-.07-.2a4.52,4.52,0,0,1,.06-1.1,5.62,5.62,0,0,0,0-.58c0-.17,0-.34,0-.51,0,0,.18.12.2.13a2.68,2.68,0,0,1,.1.35c0,.29,0,.59,0,.88a4.85,4.85,0,0,1-.13,1.2s0,.07,0,.07Z"/><path class="cls-1" d="M32.09,19.38c-.06-.13-.12-.25-.17-.37l-.54-.93a2.21,2.21,0,0,1-.24-.71c.08-.15.19-.3.29-.45,0,.09.09.17.14.26.11.31.21.64.33,1a1.37,1.37,0,0,0,.27.47c0,.25-.05.51-.07.77Z"/><path class="cls-1" d="M32.13,18.25a.93.93,0,0,0-.1-.2,8.28,8.28,0,0,0-.42-1.18.46.46,0,0,1-.07-.07.86.86,0,0,1,.29-.31c0,.13.07.25.11.38a1.57,1.57,0,0,0,.09.23l.15.18c0,.32,0,.65,0,1Z"/><path class="cls-1" d="M29.31,16.44a4.36,4.36,0,0,1-.17-.51,1.27,1.27,0,0,1,0-.2l.09-.27c.08-.14.14-.26.22-.39a1.05,1.05,0,0,1,0,.43,2,2,0,0,0-.14.25c0,.23,0,.46-.05.69Z"/><path class="cls-1" d="M28.33,16.41c0-.14.4-.17.51-.19a.86.86,0,0,1,.18.14c-.23,0-.46,0-.69.05Z"/><path class="cls-1" d="M28.06,16.38a1.27,1.27,0,0,1-.48-.14c.13-.17.62-.18.79-.21s.21.06.21.08l-.18.05a.83.83,0,0,0-.29.21Z"/><path class="cls-1" d="M29.48,16.38c0-.2,0-.38,0-.56l.21-.4a6.6,6.6,0,0,1,.56-.72l.13-.16v0c-.08.26-.17.53-.26.79l-.66,1s0,0,0,0Z"/><path class="cls-1" d="M27.39,16.15l-.1-.08v-.22h.62s.17.05.17.07a1.15,1.15,0,0,0-.69.24Z"/><path class="cls-1" d="M29,16.15c-.5-.33-1.14-.45-1.65-.78l-.09-.08v-.23c.29.18.61.32.91.49.09,0,.19.12.28.14A2.23,2.23,0,0,1,29,16a.93.93,0,0,0,0,.13Z"/><path class="cls-1" d="M28.86,15.72c-.48-.29-1-.51-1.5-.81l-.08-.06v-.22a6.73,6.73,0,0,0,.87.4,2.33,2.33,0,0,1,.57.34c0,.12.09.23.14.35Z"/><path class="cls-1" d="M27.51,15.7h-.22v-.17l.23.14.06,0Z"/><path class="cls-1" d="M29,15.62a2,2,0,0,1-.15-.45,7.94,7.94,0,0,1,.27-1.44l.09.14c.06.15.13.29.19.44v.46a4.2,4.2,0,0,1-.26.52l-.14.33Z"/><path class="cls-1" d="M29.65,15.22c0-.11,0-.22,0-.33a5.68,5.68,0,0,1,.78-1.23h0a4.88,4.88,0,0,1,.06.52,1.17,1.17,0,0,1-.28.38,8.06,8.06,0,0,0-.53.66Z"/><path class="cls-1" d="M28.58,15.06l-.32-.16a7.34,7.34,0,0,1-1-.47v-.21l.08,0a3.58,3.58,0,0,1,1,.44l.07.08c0,.1.08.2.13.3Z"/><path class="cls-1" d="M28.69,14.9a1.6,1.6,0,0,0-.1-.23c0-.06,0-.11,0-.16,0-.5.07-1,.12-1.51h0c.07.14.15.27.23.42a1.42,1.42,0,0,1,0,.2c-.06.43-.23.85-.27,1.29Z"/><path class="cls-1" d="M29.56,14.57c0-.2,0-.41,0-.61a2.09,2.09,0,0,1,.24-.58c.13-.2.25-.4.39-.59a.93.93,0,0,0,.14.38,1,1,0,0,0,0,.17l0,.1c-.2.28-.4.58-.61.86l-.15.27Z"/><path class="cls-1" d="M28.28,14.41a7.53,7.53,0,0,0-1-.37v-.3a2,2,0,0,1,.86.37l.15.3Z"/><path class="cls-1" d="M28.41,14.27c0-.08-.07-.16-.11-.23a.33.33,0,0,0,0-.06,7,7,0,0,1,0-1.65l.24.23a.9.9,0,0,1,.05.4l-.12,1.1c0,.07,0,.14,0,.21Z"/><path class="cls-1" d="M29.38,13.84l-.11-.2-.05-.07-.37-.68.22.18s.2.16.26.19l0,.2c0,.13,0,.26,0,.38Z"/><path class="cls-1" d="M28,13.81l-.2-.09a2.35,2.35,0,0,1-.51-.17,2.44,2.44,0,0,1,0-.27,2.32,2.32,0,0,1,.45.13l.1.07.17.33Z"/><path class="cls-1" d="M28.05,13.54a.3.3,0,0,1,0-.1,1.34,1.34,0,0,1-.18-.28,1.83,1.83,0,0,1-.09-.39,7.92,7.92,0,0,1,.05-.85,1.32,1.32,0,0,1,.26.22,1.24,1.24,0,0,0,0,.16c0,.41,0,.83,0,1.24Z"/><path class="cls-1" d="M29.53,13.53a.49.49,0,0,1,0-.12A5.77,5.77,0,0,1,29.9,12l0-.06c.07.17.15.34.23.51v0c-.18.36-.43.7-.62,1Z"/><path class="cls-1" d="M27.64,13.2l-.37-.09a2.62,2.62,0,0,1,0-.28.88.88,0,0,1,.38.36Z"/><path class="cls-1" d="M29.26,13l-.16-.15a1.68,1.68,0,0,1-.29-.25,5.8,5.8,0,0,1-.52-.48s-.08-.1-.1-.12l.09-.34c.2.2.43.38.63.58l.28.3c0,.15,0,.3.07.46Z"/><path class="cls-1" d="M29.42,12.94c0-.14-.05-.28-.07-.42v-.19a4.25,4.25,0,0,1,.28-.92,1,1,0,0,1,.19.3c-.13.4-.29.81-.39,1.22Z"/><path class="cls-1" d="M27.57,12.73l-.22-.34-.09-.86.23.11.13.12c0,.33-.05.65-.05,1Z"/><path class="cls-1" d="M27.32,12.67l-.71-.34h-.12c0-.12,0-.24,0-.36a1.27,1.27,0,0,1,.47.13,3.58,3.58,0,0,1,.4.56Z"/><path class="cls-1" d="M29.14,12.25c-.23-.22-.5-.44-.72-.68,0,0-.05,0,0-.09l.11-.19h0c.15.16.3.33.44.51l.18.41v0Z"/><path class="cls-1" d="M27.17,12.12l-.1-.12c-.16-.25-.35-.5-.51-.75,0,0,0,0,0,0l.38.13.13.07.09.69Z"/><path class="cls-1" d="M29.23,12l-.12-.3c.05-.24.12-.47.18-.71v0c.06.07.23.16.2.27a7.58,7.58,0,0,0-.26.76Z"/><path class="cls-1" d="M26.77,11.87l-.18,0-.14-.07,0,0a2.48,2.48,0,0,1,0-.47l.39.6Z"/><path class="cls-1" d="M29,11.43a2.88,2.88,0,0,1-.1-.82l.24.23a0,0,0,0,0,0,0c-.05.18-.09.37-.14.56Z"/><path class="cls-1" d="M28.82,11.38a1.26,1.26,0,0,0-.22-.24c-.06-.09.09-.37.14-.46,0,.19,0,.4.05.6l0,.1Z"/><path class="cls-2" d="M25.56,9.48l-.26-.1v0c.16-.48.37-1,.56-1.45a6.39,6.39,0,0,1,.83-1.49l.16-.14L27,6.16a2.09,2.09,0,0,1,.34-.08l.3,0,.29.1v0l-.09.21a1.25,1.25,0,0,0-.89.14,3.38,3.38,0,0,0-.9,1.51c-.17.46-.34.92-.5,1.38l0,0Z"/><path class="cls-2" d="M8.18,9.43l0,0C8,8.83,7.74,8.25,7.52,7.68l-.1-.23a2,2,0,0,0-.82-1l-.27-.06a3.54,3.54,0,0,0-.46,0c0-.08-.06-.15-.09-.22A1.38,1.38,0,0,1,6.17,6h.19c.7,0,1,.79,1.29,1.33a2.86,2.86,0,0,1,.2.48l.06.1.54,1.39-.27.09Z"/><path class="cls-2" d="M25.86,11.89c-.16-.06-.44-.18-.56-.21a1.12,1.12,0,0,1,.13-.39h0l.57.21s0,0,0,.05a1.17,1.17,0,0,1-.15.34Z"/><path class="cls-2" d="M8,11.86a1.91,1.91,0,0,1-.18-.47l.55-.22h0c0,.16.1.32.16.48L8,11.86Z"/><path class="cls-2" d="M25.13,11.62h0l-.67-.23a.9.9,0,0,1,.13-.39l.7.23c-.05.13-.09.27-.14.4Z"/><path class="cls-2" d="M8.71,11.59a4.42,4.42,0,0,1-.15-.48l.7-.26h0c0,.16.08.32.13.48l-.72.26Z"/><path class="cls-2" d="M26.08,11.35a.57.57,0,0,0-.28-.11v0c.05-.14.1-.28.16-.42l.31.11-.18.44Z"/><path class="cls-2" d="M24.26,11.33l-.75-.23c0-.13.09-.26.13-.39l.47.13c.1,0,.19.06.29.09s-.09.27-.14.4Z"/><path class="cls-2" d="M9.59,11.29c0-.17-.09-.33-.14-.49l.76-.23.12.49-.74.23Z"/><path class="cls-2" d="M7.76,11.23l-.18-.47a1.21,1.21,0,0,1,.25-.08l.18.46-.25.09Z"/><path class="cls-2" d="M25.63,11.17l-.56-.2.16-.42.53.16,0,0-.15.44Z"/><path class="cls-2" d="M8.16,11.08c-.06-.16-.11-.31-.17-.46l.6-.21h0a1.84,1.84,0,0,1,.13.45l-.59.22Z"/><path class="cls-2" d="M23.34,11.06l-.1,0-.66-.17.09-.41.81.21-.13.4Z"/><path class="cls-2" d="M10.5,11c-.05-.16-.09-.32-.14-.47s0,0,0,0l.74-.2c0,.15.07.3.11.46v0l-.73.2Z"/><path class="cls-2" d="M24.89,10.92l-.79-.25c0-.14.07-.28.11-.42h0l.81.24v0l-.15.41Z"/><path class="cls-2" d="M22.4,10.82l-.79-.18.09-.41.82.17c0,.14-.08.27-.11.41Z"/><path class="cls-2" d="M8.92,10.8a2.31,2.31,0,0,1-.13-.46l.7-.21c0,.15.08.29.13.44l-.7.23Z"/><path class="cls-2" d="M11.4,10.77c0-.16-.07-.32-.11-.48l.78-.17h0l.09.48-.78.17Z"/><path class="cls-2" d="M21.44,10.61l-.72-.14.08-.41.74.13-.09.42Z"/><path class="cls-2" d="M23.91,10.61l-.73-.21c0-.14.07-.28.1-.42l.76.2,0,0c0,.14-.08.27-.12.41Z"/><path class="cls-2" d="M12.36,10.57c0-.17-.07-.32-.1-.48L13,10h0c0,.16.05.31.07.47l-.72.13Z"/><path class="cls-2" d="M9.78,10.52l-.12-.44a6.07,6.07,0,0,1,.84-.21c0,.14.06.28.1.42l-.82.23Z"/><path class="cls-2" d="M20.5,10.45l-.68-.11.06-.42.76.11c0,.14-.06.28-.08.42Z"/><path class="cls-2" d="M13.24,10.4c0-.15-.05-.3-.07-.46l.75-.1c0,.16,0,.32.05.48l-.73.08Z"/><path class="cls-2" d="M23,10.37l-.78-.2a3.15,3.15,0,0,1,.09-.42l.78.19a2.17,2.17,0,0,1-.08.43Z"/><path class="cls-2" d="M19.61,10.32l-.71-.08,0-.43.79.09c0,.14,0,.28,0,.42Z"/><path class="cls-2" d="M14.13,10.29c0-.15,0-.31-.06-.46l.82-.08,0,.47-.79.07Z"/><path class="cls-2" d="M10.76,10.25a2.07,2.07,0,0,1-.1-.43l.74-.17h.07c0,.13,0,.28.07.42l-.78.19Z"/><path class="cls-2" d="M18.7,10.24l-.82-.07c0-.15,0-.29,0-.44l.88.07,0,.44Z"/><path class="cls-2" d="M15.08,10.21l0-.46.76,0,0,.46-.76,0Z"/><path class="cls-2" d="M17.6,10.17l-.74,0c0-.15,0-.3,0-.45l.86,0c0,.15,0,.29,0,.44Z"/><path class="cls-2" d="M16,10.16c0-.15,0-.3,0-.45h.74c0,.14,0,.29,0,.44l-.68,0Z"/><path class="cls-2" d="M22,10.14l-.8-.17c0-.14.05-.28.08-.41l.85.16-.09.41Z"/><path class="cls-2" d="M11.71,10c0-.14-.06-.28-.08-.42l.73-.13.06.41-.71.14Z"/><path class="cls-2" d="M21,9.94l-.67-.12c0-.14,0-.27,0-.41l.75.11c0,.14-.05.27-.08.41Z"/><path class="cls-2" d="M12.59,9.86c0-.14-.05-.28-.07-.42l.83-.11c0,.12,0,.24.05.37v0l-.81.12Z"/><path class="cls-2" d="M20.14,9.8l-.76-.1,0-.42.83.1-.06.42Z"/><path class="cls-2" d="M13.57,9.72a1.93,1.93,0,0,1-.05-.42,7.43,7.43,0,0,1,.81-.09,3.22,3.22,0,0,1,0,.43H14.2l-.63.07Z"/><path class="cls-2" d="M19.2,9.68l-.83-.07,0-.43.86.08c0,.14,0,.28,0,.42Z"/><path class="cls-2" d="M14.53,9.62a3,3,0,0,1,0-.42l.76,0c0,.14,0,.28,0,.42l-.74,0Z"/><path class="cls-2" d="M18.09,9.59l-.71,0c0-.15,0-.28,0-.43l.85.05,0,.42Z"/><path class="cls-2" d="M15.43,9.57c0-.15,0-.29,0-.42.27,0,.53,0,.8,0l0,.42-.82,0Z"/><path class="cls-2" d="M17.07,9.55h-.66l0-.42h.85c0,.15,0,.28,0,.42Z"/><path class="cls-2" d="M25.12,9.32c-.11-.05-.22-.08-.33-.12s.07-.19.11-.28.1-.26.16-.38l.31.13a.29.29,0,0,0,0,.09c-.08.18-.15.36-.22.55Z"/><path class="cls-2" d="M8.61,9.27l-.24-.64c.11,0,.21-.09.32-.12.08.22.17.43.26.65l-.34.11Z"/><path class="cls-2" d="M24.47,9.15l-.36-.09c.06-.25.11-.48.16-.72l.28.07c0,.24,0,.49-.05.74Z"/><path class="cls-2" d="M9.26,9.09c0-.22,0-.46,0-.69l.27-.07L9.63,9l-.37.11Z"/><path class="cls-2" d="M24.66,9.06l.09-1.35.43.11c-.18.41-.35.83-.52,1.24Z"/><path class="cls-2" d="M9.08,9.05l-.21-.52v0l.18-.06,0,.61Z"/><path class="cls-2" d="M23.94,9l-.29-.08c.06-.24.12-.48.17-.72l.29.08c0,.23-.1.45-.15.68V9Z"/><path class="cls-2" d="M9.79,8.94l-.15-.66.29-.08c.05.23.1.45.16.67l-.3.07Z"/><path class="cls-2" d="M23.47,8.9a.68.68,0,0,0-.28-.07c.13-.63.27-1.26.39-1.89,0-.13,0-.26.05-.39s0-.31,0-.46a1.73,1.73,0,0,0-.15-.55l-.1-.14A1.46,1.46,0,0,0,23,5.15l-.29-.06a1.63,1.63,0,0,0-.54,0,1.47,1.47,0,0,0-.28.14,1.59,1.59,0,0,0-.43.7A17.16,17.16,0,0,0,21,8.42l-.33-.05v0c.08-.51.17-1,.26-1.51a4,4,0,0,1,.57-1.6A1.26,1.26,0,0,1,22,4.85a1.84,1.84,0,0,1,1,.05l.23.1.31.23a2.31,2.31,0,0,0,.14.19,2.41,2.41,0,0,1,.16.45l0,.29a6.34,6.34,0,0,1-.1,1.06c-.12.56-.23,1.12-.35,1.68Z"/><path class="cls-2" d="M10.24,8.83c-.11-.51-.22-1-.32-1.54A7.1,7.1,0,0,1,9.8,6.16,2,2,0,0,1,10,5.47a1.4,1.4,0,0,1,.23-.3L10.42,5a2.42,2.42,0,0,1,.57-.2l.2,0h.26a2.17,2.17,0,0,1,.35.07,1.73,1.73,0,0,1,.41.3l.09.13.15.25.15.36c.07.25.13.51.2.76.1.55.2,1.1.29,1.66l-.33,0c-.08-.56-.17-1.11-.26-1.67a2.72,2.72,0,0,0-.56-1.43l-.16-.1-.17-.07a1.63,1.63,0,0,0-.66,0l-.23.06a.83.83,0,0,0-.4.29,2.28,2.28,0,0,0-.13,1.63l.36,1.69-.31.06Z"/><path class="cls-2" d="M25.44,8.52l-.31-.14h0c.08-.19.15-.38.23-.56h0l.3.13-.24.59Z"/><path class="cls-2" d="M8.3,8.47l-.22-.55a0,0,0,0,1,0,0,1.07,1.07,0,0,1,.31-.13,2.69,2.69,0,0,1,.22.59l-.3.12Z"/><path class="cls-2" d="M8.81,8.37c-.1-.22-.19-.44-.28-.66a.46.46,0,0,1,.14,0c.07.21.13.43.2.65v0l-.06,0Z"/><path class="cls-2" d="M20.47,8.35l-.29,0,.12-.73c.1,0,.21,0,.31,0,0,.24-.11.5-.11.74Z"/><path class="cls-2" d="M9,8.29c-.06-.22-.13-.44-.19-.67l.18,0c0,.23,0,.47,0,.71Z"/><path class="cls-2" d="M13.25,8.29c0-.23-.08-.47-.11-.7l.3,0a1.33,1.33,0,0,0,.05.19c0,.17,0,.33.07.51l-.31,0Z"/><path class="cls-2" d="M20,8.29l-.34,0c.07-.24.15-.49.23-.73l.25,0a4.55,4.55,0,0,1-.11.74Z"/><path class="cls-2" d="M13.73,8.24l-.12-.71.27,0,.21.7-.36,0Z"/><path class="cls-2" d="M24.55,8.24l-.7-.19c0-.21.09-.42.13-.62l.61.14,0,.67Z"/><path class="cls-2" d="M9.2,8.23c0-.23,0-.45,0-.67.2-.06.41-.1.61-.15,0,.2.09.4.14.61s-.55.11-.7.21Z"/><path class="cls-2" d="M19.33,8.23l-.35,0,0-.79.28,0c0,.26.07.53.1.8Z"/><path class="cls-2" d="M14.26,8.19c-.08-.23-.16-.47-.23-.7l.34,0c0,.24-.06.48-.08.72Z"/><path class="cls-2" d="M14.45,8.18c0-.24.05-.49.08-.72l.26,0s0,.05,0,.07c0,.22,0,.44,0,.65l-.36,0Z"/><path class="cls-2" d="M18.71,8.18l-.2,0c0-.26,0-.53,0-.79l.32,0,0,.79Z"/><path class="cls-2" d="M18.32,8.15H18c0-.68,0-1.35,0-2a3,3,0,0,0-.18-1l-.13-.23-.12-.13-.23-.13-.28-.06a2.37,2.37,0,0,0-.65,0l-.17.06a.7.7,0,0,0-.26.22c-.1,0-.18.31-.21.41s0,.15-.05.23l0,.3c0,.26,0,.53,0,.79,0,.51,0,1,.07,1.52l-.33,0c0-.37,0-.72,0-1.08a4.74,4.74,0,0,1,.27-2.19A1,1,0,0,1,16,4.49a1.64,1.64,0,0,1,1.73,0l.19.17a2.36,2.36,0,0,1,.28.52c0,.14.06.29.1.45a21.19,21.19,0,0,1,0,2.52Z"/><path class="cls-2" d="M15,8.14c0-.24,0-.48,0-.72l.32,0c0,.24,0,.48,0,.73Z"/><path class="cls-2" d="M19.53,8.08c-.05-.44-.1-.87-.16-1.3l.55,0c-.13.42-.26.83-.38,1.26Z"/><path class="cls-2" d="M25.73,7.78a.76.76,0,0,0-.29-.13v0c.07-.19.15-.37.23-.56h0c.1.06.23.08.33.15l-.27.56s0,0,0,0Z"/><path class="cls-2" d="M8,7.73l-.12-.28a2.59,2.59,0,0,1-.14-.29S8,7,8.07,7l.24.59L8,7.73Z"/><path class="cls-2" d="M25.22,7.66l-.45-.12c0-.21,0-.42,0-.62h.07l.6.18c-.08.18-.16.36-.23.55Z"/><path class="cls-2" d="M8.47,7.54l-.14-.33A.58.58,0,0,1,8.24,7l.2-.06.5-.13a4.43,4.43,0,0,1,0,.63l-.5.12Z"/><path class="cls-2" d="M20.62,7.45l-.68-.09s0,0,0,0l.18-.6.66.07c0,.21-.08.42-.11.63Z"/><path class="cls-2" d="M13.1,7.43c0-.21-.07-.41-.1-.61l.64-.07.18.59-.72.09Z"/><path class="cls-2" d="M24.59,7.4,24,7.26c0-.18.05-.37.07-.55l.56.12c0,.19,0,.38,0,.57Z"/><path class="cls-2" d="M9.14,7.39c0-.19,0-.38,0-.57l.56-.13c0,.18.05.37.08.56l-.6.14Z"/><path class="cls-2" d="M14,7.35c-.06-.2-.11-.4-.17-.59l.26,0c0,.21,0,.41,0,.62Z"/><path class="cls-2" d="M14.27,7.33c0-.21,0-.42,0-.62l.2,0c0,.21,0,.42-.07.63Z"/><path class="cls-2" d="M14.55,7.29l.06-.63c.21,0,.43,0,.65-.06,0,.21,0,.42,0,.64l-.73,0Z"/><path class="cls-2" d="M19.21,7.26l-.67,0c0-.21,0-.43,0-.64l.63,0,.09.67Z"/><path class="cls-2" d="M26.07,7l-.31-.13,0,0c.07-.17.14-.33.2-.49h0a2.05,2.05,0,0,1,.38.16L26.09,7Z"/><path class="cls-2" d="M7.65,7l-.27-.47v0l.42-.17c.06.17.13.35.2.52L7.65,7Z"/><path class="cls-2" d="M25.54,7l-.27-.1a2.6,2.6,0,0,1,.14-.53,1.5,1.5,0,0,1,.35.09c-.08.18-.15.36-.22.54Z"/><path class="cls-2" d="M8.18,6.83l0-.08L8,6.4l0-.1.35-.11c0,.18.1.36.16.55l-.29.09Z"/><path class="cls-2" d="M25.09,6.82l-.26-.08,0-.56.39.09-.15.53v0Z"/><path class="cls-2" d="M8.62,6.7c0-.19-.1-.37-.14-.55l.41-.09c0,.18,0,.37,0,.56l-.3.08Z"/><path class="cls-2" d="M19.91,6.66l-.56,0c0-.21-.06-.43-.08-.64l.88.09L20,6.66Z"/><path class="cls-2" d="M20.73,6.66l-.56-.06c.06-.19.11-.39.17-.58a5.61,5.61,0,0,1,.59.06,2.32,2.32,0,0,0-.13.58Z"/><path class="cls-2" d="M24.65,6.66l-.54-.12V6l.59.13c0,.19,0,.38,0,.57Z"/><path class="cls-2" d="M13,6.66l0,0-.12-.56L13.41,6l.18.59L13,6.66Z"/><path class="cls-2" d="M9.09,6.65c0-.19,0-.38,0-.56l.6-.15c0,.2,0,.39,0,.58l-.55.13Z"/><path class="cls-2" d="M13.77,6.6c-.07-.2-.13-.4-.19-.6l.27,0q.35,0,.69-.06c0,.2,0,.41-.08.62l-.69.08Z"/><path class="cls-2" d="M14.64,6.5l.06-.61.59-.06c0,.2,0,.41,0,.61l-.63.06Z"/><path class="cls-2" d="M19,6.42l-.49,0,0-.57.57,0c0,.19.05.38.08.56Z"/><path class="cls-2" d="M26.47,6.42,26,6.23a0,0,0,0,1,0,0c.08-.19.17-.39.25-.59l.44.14-.21.63,0,0Z"/><path class="cls-2" d="M7.27,6.38a.21.21,0,0,1,0-.06c-.06-.2-.13-.41-.2-.6l.43-.16.26.6v0c-.15,0-.31.13-.45.19Z"/><path class="cls-2" d="M25.82,6.26,24.87,6c0-.24,0-.48.05-.71.39.09.78.19,1.16.3v0c-.08.2-.18.42-.26.63Z"/><path class="cls-2" d="M7.89,6.15l-.27-.66L8.8,5.18h0c0,.23,0,.47,0,.7-.33.08-.66.17-1,.27Z"/><path class="cls-2" d="M26.77,6.12l.1-.31a3,3,0,0,1,.32.12.81.81,0,0,0-.42.19Z"/><path class="cls-2" d="M7,6.08a1,1,0,0,0-.43-.19,1.54,1.54,0,0,1,.34-.12L7,6.08Z"/><path class="cls-2" d="M28,6.06l0,0-.45-.17a1.81,1.81,0,0,1,.16-.48h0l.5.19L28,6.06Z"/><path class="cls-2" d="M5.71,6l-.12-.32a.52.52,0,0,1-.06-.16L6,5.35h0a2.34,2.34,0,0,0,.16.49L5.71,6Z"/><path class="cls-2" d="M24.69,5.93l-.6-.14a.58.58,0,0,1,0-.14c0-.19.09-.38.14-.56l.55.15c0,.23,0,.46,0,.69Z"/><path class="cls-2" d="M9,5.92c0-.2,0-.41,0-.61V5.23l.52-.15h0c0,.18.09.36.14.55l0,.13L9,5.92Z"/><path class="cls-2" d="M21,5.92l-.56-.06c.05-.19.11-.37.16-.55l.63.07a3.55,3.55,0,0,0-.21.54Z"/><path class="cls-2" d="M20.15,5.91l-.35,0c0-.19.05-.38.08-.56l.49,0c-.05.19-.11.37-.17.55Z"/><path class="cls-2" d="M12.78,5.9a3.77,3.77,0,0,0-.21-.52h0l.62-.07c.05.17.11.35.17.54l-.58.06Z"/><path class="cls-2" d="M19.6,5.86a2.19,2.19,0,0,0-.36,0c0-.2,0-.39-.08-.58l.56,0c0,.18-.06.37-.08.56Z"/><path class="cls-2" d="M13.53,5.84c-.06-.19-.12-.38-.17-.56l.57-.06c0,.18,0,.37.07.56l-.47.06Z"/><path class="cls-2" d="M27.36,5.81c-.33-.12-.68-.25-1-.36a2.76,2.76,0,0,1,.2-.47h0l1,.34h0c-.05.16-.12.32-.16.48Z"/><path class="cls-2" d="M6.37,5.77c-.06-.16-.12-.32-.17-.48l1-.35c.06.16.13.31.19.47l-1,.36Z"/><path class="cls-2" d="M14.17,5.77c0-.19-.06-.37-.08-.57l.52,0-.06.57-.38,0Z"/><path class="cls-2" d="M14.72,5.72l.06-.57.63-.05c0,.19-.08.37-.11.56l-.58.06Z"/><path class="cls-2" d="M18.92,5.69l-.42,0a3.69,3.69,0,0,0-.11-.56l.59,0h0c0,.18.05.37.07.55Z"/><path class="cls-2" d="M26.14,5.45l-.27-.09c.06-.18.11-.37.17-.55h0l.31.08c-.08.18-.15.36-.22.55l0,0Z"/><path class="cls-2" d="M28.26,5.42l0,0-.91-.34a2.24,2.24,0,0,1,.15-.46.2.2,0,0,1,0-.08l.64.23.08,0,.25.1a.24.24,0,0,0,0,.09c-.07.15-.12.3-.18.45Z"/><path class="cls-2" d="M23.94,5.38a1.26,1.26,0,0,0-.41-.45,2.23,2.23,0,0,1,.51.12c0,.11-.07.22-.1.33Z"/><path class="cls-2" d="M5.47,5.38l0-.11c0-.14-.11-.28-.16-.41v0l1-.35h0L6.43,5h0l-.91.34Z"/><path class="cls-2" d="M9.8,5.38,9.71,5l.49-.12h0a1.43,1.43,0,0,0-.42.46Z"/><path class="cls-2" d="M7.55,5.33c-.08-.19-.15-.37-.23-.55l.34-.1,0,0c0,.18.11.36.16.54l-.3.08Z"/><path class="cls-2" d="M21.23,5.23l-.62-.08.21-.68.58.07c0,.23-.08.46-.11.69Z"/><path class="cls-2" d="M12.48,5.22s0,0,0,0c0-.22-.06-.45-.09-.67a2.4,2.4,0,0,1,.28,0,1.39,1.39,0,0,1,.3,0c0,.23.17.45.19.68-.2,0-.39,0-.58.06l-.07,0Z"/><path class="cls-2" d="M20.41,5.2c-.41-.06-.84-.08-1.26-.12,0-.24-.06-.47-.09-.71l1.57.14c-.07.22-.14.45-.2.68Z"/><path class="cls-2" d="M25.19,5.2l-.27-.08c0-.18,0-.37,0-.55.1,0,.32,0,.37.11l-.12.52Z"/><path class="cls-2" d="M13.31,5.12l-.21-.68.53-.06,1.07-.1a5.69,5.69,0,0,1-.07.71l-1.32.13Z"/><path class="cls-2" d="M8.51,5.09l-.12-.54c.06-.11.27-.1.39-.11,0,.19,0,.37,0,.56a2.8,2.8,0,0,0-.31.09Z"/><path class="cls-2" d="M24.75,5.07l-.58-.17-.5-.12c0-.16.09-.32.14-.49.32.09.67.17,1,.28,0,.16,0,.33,0,.5Z"/><path class="cls-2" d="M9,5.06c0-.17,0-.34,0-.51H9c.31-.1.63-.19.95-.26.05.16.09.33.14.49A7.84,7.84,0,0,0,9,5.06Z"/><path class="cls-2" d="M27.14,5l-.53-.18h0c.08-.18.14-.35.22-.53l.53.18c-.07.18-.13.36-.19.54Z"/><path class="cls-2" d="M14.8,5c0-.24,0-.47.07-.71l.58,0c0,.22,0,.44,0,.67v0L14.8,5Z"/><path class="cls-2" d="M6.59,5c-.07-.18-.13-.36-.19-.53v0l.52-.18c.06.16.13.32.2.48l0,.06L6.59,5Z"/><path class="cls-2" d="M18.85,5c-.18,0-.35,0-.53,0,0,0,0-.08,0-.11l0-.6.57,0c0,.23.06.46.1.7Z"/><path class="cls-2" d="M12.25,5c0-.08-.24-.19-.31-.23l-.13-.05-.19,0,.57-.1.06.42Z"/><path class="cls-2" d="M21.51,5c0-.14,0-.27,0-.4l.57.09a1.66,1.66,0,0,0-.56.25s-.05,0-.06.06Z"/><path class="cls-2" d="M23.5,4.76l-1.23-.25c0-.18,0-.35.07-.52l1.3.26c-.05.17-.09.34-.14.51Z"/><path class="cls-2" d="M10.24,4.74l-.12-.5L11.41,4c0,.17.05.35.08.52l-1.25.25Z"/><path class="cls-2" d="M28.54,4.72a1.44,1.44,0,0,0-.38-.15h0A5.05,5.05,0,0,1,28.3,4a.6.6,0,0,1,.22.09l.23.08c-.06.18-.13.36-.19.53Z"/><path class="cls-2" d="M5.19,4.68A5.55,5.55,0,0,1,5,4.16L5.44,4l.19.54-.44.16Z"/><path class="cls-2" d="M15.63,4.64c0-.15,0-.28,0-.42s.59,0,.59,0a1.25,1.25,0,0,0-.47.31.64.64,0,0,0-.1.13Z"/><path class="cls-2" d="M18.12,4.58,18,4.48a1.82,1.82,0,0,0-.41-.27h.52l0,.36Z"/><path class="cls-2" d="M27.93,4.5h0L27,4.15h-.08v0c.07-.17.14-.34.22-.5.34.11.68.24,1,.36V4c-.06.16-.12.32-.17.48Z"/><path class="cls-2" d="M22.06,4.47l-1.19-.16c.05-.17.1-.34.16-.5A8.81,8.81,0,0,1,22.18,4c0,.18-.05.35-.08.52Z"/><path class="cls-2" d="M5.79,4.47a2.52,2.52,0,0,1-.18-.55l1-.35h0c.06.17.13.34.21.52l-.63.22-.44.16Z"/><path class="cls-2" d="M11.65,4.47c0-.18-.05-.36-.08-.53l1.16-.15.15.5-1.23.18Z"/><path class="cls-2" d="M24.79,4.39l-.2-.06-.38-.11c0-.19.1-.37.15-.56l.49.14,0,.59Z"/><path class="cls-2" d="M8.94,4.38c0-.19,0-.39,0-.59l.51-.14c0,.19.11.38.14.57l-.6.16Z"/><path class="cls-2" d="M20.66,4.35l-.39,0a2,2,0,0,1,.13-.59l.47,0c-.06.2-.13.4-.18.6Z"/><path class="cls-2" d="M13.05,4.27l-.18-.58a5.43,5.43,0,0,1,.55-.06.2.2,0,0,1,.06.13c0,.16,0,.32.08.47l-.51,0Z"/><path class="cls-2" d="M19.47,4.24l-.42,0C19,4,19,3.83,19,3.64a3.13,3.13,0,0,1,.53,0c.05,0,0,.11,0,.17s-.05.28-.07.42Z"/><path class="cls-2" d="M24,4.19l-1-.24c0-.19.08-.37.13-.55a5.46,5.46,0,0,1,1,.22c-.05.19-.09.38-.14.57Z"/><path class="cls-2" d="M9.7,4.17a3.52,3.52,0,0,1-.13-.57l1-.22h0c0,.19.08.38.13.56l-1,.23Z"/><path class="cls-2" d="M14.32,4.16c0-.18-.05-.37-.06-.55,0,0,0,0,.08,0h.45c0,.18,0,.37-.07.56l-.4,0Z"/><path class="cls-2" d="M14.88,4.11c0-.17,0-.35.07-.52.38,0,.78-.07,1.17-.08,0,.18,0,.35,0,.53l-1.26.07Z"/><path class="cls-2" d="M18.77,4.11l-1-.07c0-.17,0-.35,0-.52l1,.08c0,.16,0,.34.06.51Z"/><path class="cls-2" d="M28.83,4c-.55-.21-1.11-.43-1.68-.59V2.81a2,2,0,0,1,.34.06c.45.14.9.31,1.33.49.17.11.39.16.56.28a3.62,3.62,0,0,1-.51.4Z"/><path class="cls-2" d="M16.29,4c0-.18,0-.35,0-.53H17.6l0,.52Z"/><path class="cls-2" d="M4.89,4c-.17-.13-.35-.27-.53-.39v0A9.57,9.57,0,0,1,5.83,3a5.12,5.12,0,0,1,.77-.2v.62l-.43.15L4.89,4Z"/><path class="cls-2" d="M22.87,3.92l-.95-.18c0-.19.07-.38.1-.57l1,.19c-.05.18-.09.37-.13.56Z"/><path class="cls-2" d="M10.85,3.91c0-.19-.09-.38-.14-.57l1-.17.09.57-1,.17Z"/><path class="cls-2" d="M21.73,3.72l-.65-.08c.05-.19.11-.38.17-.56a4.22,4.22,0,0,1,.61.07c0,.18-.06.38-.09.57Z"/><path class="cls-2" d="M12,3.72l-.09-.59.61-.07c.05.19.11.37.17.56l-.69.1Z"/><path class="cls-2" d="M24.85,3.63c-.3-.08-.61-.18-.91-.24a.08.08,0,0,1,0,0c.05-.17.1-.34.14-.51h0l.91.24-.1.14,0,.1c0,.1,0,.21,0,.31Z"/><path class="cls-2" d="M8.89,3.62c0-.13,0-.25-.05-.37s-.08-.13-.1-.18c.31-.09.63-.18.94-.24l.15.54c-.32.08-.64.16-.94.25Z"/><path class="cls-2" d="M29.51,3.52l-.1-.07-.54-.25A.83.83,0,0,1,29,2.85c0-.07.05-.19.13-.22a1.13,1.13,0,0,1,.59.29l0,.05a1,1,0,0,1-.26.55Z"/><path class="cls-2" d="M4.22,3.49c0-.07-.13-.15-.14-.24a.41.41,0,0,1,0-.09L4,2.93c.09-.18.38-.27.56-.33h.1l.25.54-.49.24a1,1,0,0,0-.17.1Z"/><path class="cls-2" d="M18.69,3.43l-.54,0,0-.59.52,0c0,.2.05.4.08.59Z"/><path class="cls-2" d="M15,3.42c0-.2,0-.4.07-.59l.61-.05c0,.19,0,.39,0,.58L15,3.42Z"/><path class="cls-2" d="M17.86,3.38l-.88,0c0-.19,0-.39,0-.58.34,0,.69,0,1,0l0,.58Z"/><path class="cls-2" d="M15.82,3.36c0-.2,0-.39,0-.59.34,0,.69,0,1,0,0,.19,0,.39,0,.58l-1,0Z"/><path class="cls-2" d="M23.73,3.34l-.64-.14-.55-.1c0-.19.05-.38.08-.56.43.07.86.17,1.28.26v0c0,.17-.09.34-.13.51Z"/><path class="cls-2" d="M10,3.33c-.05-.18-.1-.36-.14-.55l1.28-.26c0,.19.06.37.09.56L10,3.33Z"/><path class="cls-2" d="M22.34,3.06l-1-.14a2.81,2.81,0,0,1,.08-.31,1.69,1.69,0,0,1,0-.23,7.64,7.64,0,0,1,1.06.12c0,.18-.05.37-.08.56Z"/><path class="cls-2" d="M11.38,3.06l-.09-.56.44-.08.41,0h.22a2,2,0,0,0,.09.54c-.32,0-.65.08-1,.12l-.1,0Z"/><path class="cls-2" d="M25.13,3c-.51-.15-1-.27-1.54-.39l-.65-.14c-.5-.07-1-.16-1.49-.21h-.07a5.37,5.37,0,0,0-.21-.56,27.77,27.77,0,0,1,3.94.69l.59.16a2.27,2.27,0,0,1-.42.33.44.44,0,0,1-.15.12Z"/><path class="cls-2" d="M8.6,2.94,8.46,2.8a4.33,4.33,0,0,1-.41-.3s0,0,0,0l.49-.13a32.79,32.79,0,0,1,3.79-.7h.24a2.41,2.41,0,0,0-.2.53l-.07,0a22,22,0,0,0-3.6.71l-.11,0Z"/><path class="cls-2" d="M27.93,2.85a3.52,3.52,0,0,0-.77-.21.79.79,0,0,1,.17-.6,3.55,3.55,0,0,1,.65.12c.07,0,.17.06.17.15l-.2.51v0Z"/><path class="cls-2" d="M5.8,2.81,5.6,2.3c0-.08,0-.09.07-.14A3.47,3.47,0,0,1,6.38,2c.12,0,.14.15.18.26s0,.22,0,.34a5.41,5.41,0,0,0-.79.21Z"/><path class="cls-2" d="M18.59,2.68l-.88-.06,0-.58,1,.07c-.12.08-.06.45-.05.57Z"/><path class="cls-2" d="M15,2.66c0-.11,0-.22,0-.33a1.64,1.64,0,0,1,0-.22l.35,0,.72,0c0,.19,0,.38,0,.57-.36,0-.73,0-1.09.06Z"/><path class="cls-2" d="M17.36,2.61c-.35,0-.71,0-1.07,0,0-.19,0-.38,0-.57h1.32c0,.18,0,.37,0,.57Z"/><path class="cls-2" d="M25.82,2.36,25,2.14a.25.25,0,0,1,0-.07c0-.19.08-.37.13-.56a1.13,1.13,0,0,1,.82.26A1.29,1.29,0,0,1,26,2c-.07.13-.14.26-.2.4Z"/><path class="cls-2" d="M7.91,2.33c-.09-.09-.12-.27-.19-.38a.31.31,0,0,1,.1-.26,1.25,1.25,0,0,1,.72-.2h0a2.8,2.8,0,0,0,.17.63c-.27.07-.55.15-.83.2Z"/><path class="cls-2" d="M18.82,2l-.53-.05-.93,0h-1.2c-.38,0-.76,0-1.14.06,0,0,0,0-.06,0a3.46,3.46,0,0,0-.29-.45,30.62,30.62,0,0,1,3.83-.09l.78,0-.12.16a3.26,3.26,0,0,0-.34.4Z"/><path class="cls-2" d="M24,1.93c-.35-.08-.71-.14-1.06-.2l0,0,.12-.5a.13.13,0,0,1,.15-.09l.7.13a.22.22,0,0,1,.13.08v.09a1.48,1.48,0,0,0,0,.51Z"/><path class="cls-2" d="M9.74,1.91a4,4,0,0,0-.05-.59.27.27,0,0,1,.07-.08,5.62,5.62,0,0,1,.8-.15.15.15,0,0,1,.11.08c0,.15.07.31.1.47l0,.07-1.07.2Z"/><path class="cls-2" d="M21.89,1.57a6.87,6.87,0,0,0-.78-.08c0-.21,0-.41,0-.61s.79-.12.9.05,0,.25-.07.37a.75.75,0,0,0,0,.26Z"/><path class="cls-2" d="M11.82,1.56a2.26,2.26,0,0,1,0-.26,1.1,1.1,0,0,1-.05-.42l.14-.07c.17,0,.65-.13.74.06s0,.39,0,.6l-.27,0-.55.07Z"/><path class="cls-2" d="M14.57,1.28c0-.19-.08-.38-.13-.56s.3-.18.39-.2.44-.06.51.07a1.48,1.48,0,0,0,.06.63l-.83.06Z"/><path class="cls-2" d="M19.35,1.24l-.8-.05h0s0-.17,0-.22,0-.28,0-.42.44,0,.58,0l.21.07c.06,0,.1.13.13.17a1.1,1.1,0,0,1-.12.48Z"/><path class="cls-2" d="M16.42,1.18c.07-.2-.11-.6.16-.67a3.57,3.57,0,0,1,.8,0s.07.07.08.11a1.38,1.38,0,0,0,.05.54Z"/><path class="cls-2" d="M7.93,12.62c-.22-.14-.15-.33,0-.5.62-.25,1.26-.48,1.9-.69l.91-.26,1.07-.27c.63-.12,1.26-.24,1.9-.33l.54-.06.74-.07,1.24-.06c.59,0,1.2,0,1.8,0a26.57,26.57,0,0,1,3.18.4q1.35.27,2.67.66l.83.26c.35.13.74.25,1.08.4a.3.3,0,0,1,0,.47h-.33l-1.71-.53-1-.26c-1-.24-2-.45-3.08-.6l-.56-.06-1.3-.1c-.83,0-1.67,0-2.5,0a26.83,26.83,0,0,0-3,.4,31.89,31.89,0,0,0-4.15,1.14Z"/><path class="cls-2" d="M26.35,10.73l-.79-.27c-.75-.24-1.52-.46-2.28-.66a0,0,0,0,0,0,0l-1.37-.3c-.66-.12-1.33-.24-2-.33L18.67,9l-1-.06c-1,0-1.92,0-2.87,0a25.86,25.86,0,0,0-3.06.4c-.75.15-1.48.33-2.21.53s-1.45.47-2.15.71c-.17,0-.26,0-.32-.19a.41.41,0,0,1,.16-.33l1.45-.53.87-.26,1-.27.62-.13c.88-.16,1.76-.3,2.66-.4l.78-.06.91-.06c.91,0,1.83,0,2.73,0l.92.07a28.72,28.72,0,0,1,5.21.92c.68.19,1.37.43,2,.66l.18.08a.35.35,0,0,1,.1.26.55.55,0,0,1-.14.26.67.67,0,0,0-.12.06Z"/><path class="cls-2" d="M29.61,28.17a.48.48,0,0,1-.46.48.49.49,0,0,1-.48-.48.48.48,0,0,1,.48-.46.47.47,0,0,1,.46.46Z"/><path class="cls-2" d="M32.32,25.38a.64.64,0,1,1-.64-.64.64.64,0,0,1,.64.64Z"/><path class="cls-2" d="M30.84,18.86a.45.45,0,0,1-.89,0,.45.45,0,1,1,.89,0Z"/><path class="cls-2" d="M30.1,19.42a.6.6,0,0,1-1.19,0,.6.6,0,1,1,1.19,0Z"/><path class="cls-2" d="M30,18.38a.55.55,0,0,1,.37-.14.52.52,0,0,1,.33.11.61.61,0,1,0-1-.49.62.62,0,0,0,.29.52Z"/><path class="cls-2" d="M29.62,17.72a.64.64,0,0,1-.64.63.63.63,0,0,1-.63-.63.64.64,0,0,1,.63-.64.64.64,0,0,1,.64.64Z"/><path class="cls-2" d="M30,17.22v0a.64.64,0,0,0-.64-.63.64.64,0,0,0-.6.41l.2,0a.75.75,0,0,1,.73.56.75.75,0,0,1,.31-.3Z"/><path class="cls-2" d="M30.47,15.85a.64.64,0,0,0-.64.64s0,.06,0,.1a.6.6,0,0,1,.29.43.6.6,0,0,0,.34.11.64.64,0,0,0,.64-.64.64.64,0,0,0-.64-.64Z"/><path class="cls-2" d="M29.42,26.29a.76.76,0,0,1,.6-.75.65.65,0,0,0-.63-.5.64.64,0,0,0-.64.64.64.64,0,0,0,.64.63h0v0Z"/><path class="cls-2" d="M30.2,25.66a.64.64,0,0,0-.64.64.6.6,0,0,0,.05.24h0a.57.57,0,0,1,.54.39h0a.64.64,0,0,0,0-1.28Z"/><path class="cls-2" d="M30,27.13a.48.48,0,0,1-.47.47.47.47,0,0,1,0-.94.48.48,0,0,1,.47.47Z"/><path class="cls-2" d="M29,27.25a.27.27,0,0,1-.53,0,.27.27,0,1,1,.53,0Z"/><path class="cls-2" d="M19.48,21.17l-.5-.66-1.24,0-.36,1,.36.42-2.21.17.8-.62.45-1-1.08,0s-.33.21-1.06.74a9.29,9.29,0,0,1,.81-2.12l.42.54h1.21l.26-.92s-.19-.24-.51-.58A8.51,8.51,0,0,1,19.25,18l-.95.77-.23,1,1.21,0s.37-.18.95-.49c0,.19-.75,2-.75,2Zm-.3-1.8-.79,0,.14-.51L20,17.67a11,11,0,0,0-3.68.44c.43.48.66.72.66.72l-.15.58-.87,0-.59-.75a7,7,0,0,0-1.06,3.12c.81-.54,1.48-1,1.48-1h.54l-.24.56-1.18,1,3.24-.21-.52-.71.24-.67,1,0,.72,1a27.19,27.19,0,0,0,1-3c-.43.24-1.39.63-1.39.63Z"/><polygon class="cls-2" points="19.08 19.89 17.57 19.94 17.95 18.78 17.61 18.82 17.22 19.95 15.9 19.99 15.8 20.32 17.11 20.29 16.73 21.4 17.09 21.4 17.45 20.28 18.99 20.25 19.08 19.89 19.08 19.89"/><path class="cls-2" d="M25.86,29.07l-3-3-.67-.67.51-.34,3.62,3.59-.49.41Zm-.65.61L21.69,26l.44-.28,3.61,3.53-.53.39ZM22,32a3.83,3.83,0,0,0-2.42-3.39l2-2.16,3.13,3.34c-.62.51-1.88,1.54-2.73,2.21Zm-2.46-3a3.22,3.22,0,0,1,2.14,3c-.42-.17-1.61-.37-2.14-3ZM20,34.1a9.49,9.49,0,0,1-2.48-1.21c1.67-.91,1.75-1.57,1.93-3.47a3,3,0,0,0,2.23,2.93S20.62,34.1,20,34.1Zm-.82-4.7c0,2.3-1.15,2.79-1.52,3-.08-2.48,1.52-3,1.52-3Zm-5.3,1.51c1.12-.14,3.19-.66,3.86-2.59l1.63.62s-2.25.45-2,4.13l-3.49-2.16ZM11.67,28.8a6.51,6.51,0,0,0,.81-1.86v0s0-.06,0-.1,0-.06,0-.09a3.8,3.8,0,0,0-.3-1.12c0-.09-.07-.19-.11-.29s-.19-.44-.32-.7c-.5-.25-1.11-.53-1.11-.53a3.14,3.14,0,0,1-.21.48,2.23,2.23,0,0,1-.29.44h0a.57.57,0,0,1-.18.17.79.79,0,0,1-.28.13c.52-1.19.57-1.34.57-1.34l-.06-.6a10.87,10.87,0,0,1,2,.92s.48,1.48.69,1.87c.38.56,2.31,1,4.67,1.75-.17.59-1,2.85-4.41,2.7L11.67,28.8ZM10,28.26c-.13.31.21-.54.21-.54l.39-.38-.06-.29.19-.08.18-.32-.08-.25.1,0a2.44,2.44,0,0,0,.42,1.1l.23-.13a2.21,2.21,0,0,1,0-2.57l-.67-.2s-.23.35-.39.38c.17-.28.3-.55.3-.55l.77.35a14.53,14.53,0,0,1,.66,1.77,4.26,4.26,0,0,1-.67,1.94L10,28.26ZM8.72,31.05h0L8,30.79H8l.07,0,1.1-2.89h0l.18-.48h0l.51.23L8.65,31l.07,0Zm.46-3.71L9,27.73a2.12,2.12,0,0,1-.31-.59l.46.2Zm-.73-1,.15-.14,1.63.73.08.26-.22.21a16.45,16.45,0,0,1-1.54-.66c-.16-.13-.1-.38-.1-.4Zm.21-.61a.33.33,0,0,1,.17-.27l1.72.9a.42.42,0,0,1,.07.21c0,.1-.17.17-.17.17L8.68,26s0,0,0-.22Zm.3-.85c0-.11.22-.16.22-.16a3.25,3.25,0,0,1,.41.24l-.22.51A3,3,0,0,1,9,25.32a1,1,0,0,1-.07-.4Zm1.59.38a.89.89,0,0,0,.51-.43l.12,0a2.86,2.86,0,0,0-.23.65l-.4-.26Zm.31.53a2.2,2.2,0,0,1,0,.37l-1.36-.65a.77.77,0,0,0,.3,0,1.52,1.52,0,0,0,.38-.24,6.35,6.35,0,0,1,.73.5ZM9.45,24.17a.67.67,0,0,1,.24,0l.21.12-.2.49-.37-.25a.69.69,0,0,1,.12-.32Zm4.16-10.71A1.33,1.33,0,0,0,12.92,15a1.8,1.8,0,0,0,.68.86.71.71,0,0,0-.32.59s0,.06,0,.08h0c-1.52-.31-1.56,1-1.56,2.05-3.19-4.41,1.88-5.13,1.88-5.13Zm2-.86c.33,2.54-.37,3.07-1,3.47a.71.71,0,0,0-.58-.3h-.09a3,3,0,0,1,1.71-3.17ZM14.5,16.89a.55.55,0,0,0,.16-.47c.56.28,1,.57,1,.57a4.83,4.83,0,0,1-1.2-.1Zm-1.06-.43A.54.54,0,1,1,14,17a.54.54,0,0,1-.53-.53Zm0,.41a.71.71,0,0,0,.54.25h0l-2.52,6.57-.53-.26,2.51-6.56Zm12.89.55a4.8,4.8,0,0,1-3.1,1.28,7,7,0,0,0,2.57.93,5.12,5.12,0,0,1-3.47.79,6.12,6.12,0,0,0,2.39,1,3.92,3.92,0,0,1-2.93.51,5.24,5.24,0,0,0,2.11,1.22c-.89.68-4.23-.05-5.7-.13s-5.37,1.31-6.46.63l2.37-6.19a5.53,5.53,0,0,0,3.27-.09c1.77-.65,4.45-1.21,9,.08ZM26.09,28l-3.25-3.2.51-.45h0A7,7,0,0,1,26.09,28Zm-2.61-3.94c1.14-2.66,2.92-3.18,3.4-3.28V12.6H7L6.93,26.5s.36,10.25,10,10.25c6.67,0,8.88-4.85,9.6-7.83l0,0a6.18,6.18,0,0,0-3-4.9Z"/><path class="cls-2" d="M4.12,28.17a.47.47,0,1,0,.94,0,.47.47,0,0,0-.94,0Z"/><path class="cls-2" d="M1.42,25.38a.64.64,0,1,0,.64-.64.64.64,0,0,0-.64.64Z"/><path class="cls-2" d="M2.9,18.86a.44.44,0,0,0,.44.44.44.44,0,0,0,.44-.44.45.45,0,0,0-.44-.45.45.45,0,0,0-.44.45Z"/><path class="cls-2" d="M3.64,19.42a.58.58,0,0,0,.59.59.59.59,0,0,0,.6-.59.6.6,0,0,0-.6-.6.59.59,0,0,0-.59.6Z"/><path class="cls-2" d="M3.7,18.38a.55.55,0,0,0-.37-.14.58.58,0,0,0-.34.11.63.63,0,0,1-.24-.49.61.61,0,0,1,.62-.61.61.61,0,0,1,.61.61.61.61,0,0,1-.28.52Z"/><path class="cls-2" d="M4.12,17.72a.64.64,0,0,0,1.27,0,.64.64,0,1,0-1.27,0Z"/><path class="cls-2" d="M3.71,17.22v0A.64.64,0,0,1,4.94,17l-.19,0a.77.77,0,0,0-.74.56.72.72,0,0,0-.3-.3Z"/><path class="cls-2" d="M3.26,15.85a.63.63,0,0,1,.64.64.38.38,0,0,1,0,.1.58.58,0,0,0-.28.43.61.61,0,0,1-.35.11.64.64,0,0,1,0-1.28Z"/><path class="cls-2" d="M4.32,26.29a.77.77,0,0,0-.6-.75A.64.64,0,0,1,5,25.68a.63.63,0,0,1-.64.63h0v0Z"/><path class="cls-2" d="M3.54,25.66a.64.64,0,0,1,.63.64.61.61,0,0,1,0,.24h0a.58.58,0,0,0-.54.39h0a.64.64,0,1,1,0-1.28Z"/><path class="cls-2" d="M3.71,27.13a.47.47,0,1,0,.47-.47.47.47,0,0,0-.47.47Z"/><path class="cls-2" d="M4.7,27.25a.26.26,0,0,0,.26.26A.27.27,0,1,0,5,27a.26.26,0,0,0-.26.27Z"/><path class="cls-2" d="M19.47,43.4l-.19-.12a4.25,4.25,0,0,1-.58-.35,2,2,0,0,1-.21-.2.47.47,0,0,1-.11.26c-.11,0-.25-.13-.34-.19l-.26-.11-.33-.2c-.09,0-.23.11-.3.17a2.76,2.76,0,0,1,.27.23c.09.09.22.17.32.26s0,.16,0,.24,0,0,0,.06h.36l.41.16a5.08,5.08,0,0,1,.9.64,1.48,1.48,0,0,1-.07-.63,2.4,2.4,0,0,1,.11-.23Zm-2.29-1,.85-.53.12-.1q-.39,0-.81.06h0l-.74.63-.33.2-.3.13-.23.16h-.06l-.06-.08a1.16,1.16,0,0,1,0-.18l-.29.26-.69.42.09.14a1.12,1.12,0,0,1-.06.72,4,4,0,0,1,1.32-.81h.35l0,0v-.26c.28-.24.56-.5.86-.71Zm-3.61-.34.16-.23.12-.14-.37-.05-.55.71-.12.23.56-.11a1,1,0,0,0,.17-.12,2.85,2.85,0,0,1,0-.29Zm.22,2.37h-.06c-.19-.05.2-.5.28-.58a.41.41,0,0,1,.17-.07l0,.08a1.14,1.14,0,0,1-.41.56Zm.62-1-.25.07-.2.14-.31.25-.09.11a.63.63,0,0,0,0,.67l.13.09.24,0,.15-.1c.12-.12.23-.26.34-.39a.94.94,0,0,0,.14-.61c0-.05-.08-.18-.13-.21Zm-1.13-1.84-.41-.07-.08.06-.67.89c-.18.19-.35.39-.51.59.2,0,.4-.08.6-.12a1,1,0,0,0,.48-.54,1.44,1.44,0,0,1,.23-.32l.36-.49Zm-2.66,1.21.35-.49.51-.49h-.37l-.62.2a4.84,4.84,0,0,1-.89,1l.63.1c.16,0,.28-.2.39-.3Zm1.32-.39.12-.16c.13-.17.26-.37.4-.54h-.05l-.65.09-.55.53c-.23.2-.35.5-.56.71l-.12.1.37.09H11l.18-.1.2-.15.32-.32a1.64,1.64,0,0,1,.21-.25Zm8.71-.59a3.57,3.57,0,0,0-.25-.38h-.13l-.32.07.14.16s.1.1.12.15l.16.19a1.78,1.78,0,0,0,.21.27,1.82,1.82,0,0,1,.15.41l.07.09a2,2,0,0,0,.59.15l0,0-.17-.3-.6-.85Zm5.08.66a3.76,3.76,0,0,0-.75,0l.18.17.3.21.4.2a1.87,1.87,0,0,0,.42-.25l-.26-.1a1.09,1.09,0,0,1-.29-.23Zm-.61.36a1.41,1.41,0,0,1-.39-.38l-.49-.14h-.37c.19.21.41.43.63.63l.14.1.3.19a1.61,1.61,0,0,1,.5-.19v0l-.31-.2Zm1.62-.41-.74.06a4.91,4.91,0,0,0,.46.22l.38-.2h.23s-.28-.08-.33-.09Zm-16.8,0c.1-.13.2-.26.31-.38H9.87l-.44.13a.61.61,0,0,0-.07.1,2.22,2.22,0,0,1-.57.45v0l.51.2c.24,0,.47-.34.64-.51Zm10.35,2c-.13-.1-.51-.44-.41-.65.23,0,.4.4.5.56s0,.07-.09.09Zm-.36-.92a1.11,1.11,0,0,0-.3-.08.9.9,0,0,0-.13.32c0,.11.05.22.07.33a1.79,1.79,0,0,0,.61.67.47.47,0,0,0,.29,0c.24-.18.12-.53,0-.76s-.37-.3-.55-.43Zm3.87-1a1.8,1.8,0,0,1-.19-.2c-.31-.1-.62-.2-.94-.27a0,0,0,0,0,0,0l.5.49.37.47.05,0s.06.07.1.12l.19.16.13.08a5.22,5.22,0,0,0,.69-.11h0a5.17,5.17,0,0,1-.88-.8Zm-.23.8c-.2-.22-.4-.47-.58-.7L22.34,42l-.67-.12a1.17,1.17,0,0,0,.18.26,3.69,3.69,0,0,0,.44.62,4.29,4.29,0,0,0,.66.69l.25.17.55-.12v0l-.18-.15Zm-1.06-.05a.78.78,0,0,1-.24-.28h0c-.3-.38-.57-.79-.84-1.19l-.75-.31v0c.14.18.26.4.41.58l0,.06a8.76,8.76,0,0,1,.55.85.84.84,0,0,0,.42.35l.62.13h0s-.19-.15-.19-.2Zm-10.27-1.7.34-.05.05,0c-.42-.09-.85-.2-1.29-.32l.24.13a5.38,5.38,0,0,0,.66.27Zm9.56.15s0,0,0,0c.41-.11.84-.23,1.24-.38a2.19,2.19,0,0,1-.18-.53c-.06,0-.28.12-.34.13a13.75,13.75,0,0,1-1.67.46,5.08,5.08,0,0,0,.92.34Zm.82.15.25-.06.39-.14.08,0a.75.75,0,0,1-.19-.17c-.32.12-.64.23-1,.32l.44.09Zm-13.45.35-.15,0-.7,0-.19.19-.21.11h0l.32.2.26,0,.36-.19a2.73,2.73,0,0,0,.31-.27Zm16,.08.33,0h.23l.17-.06a4.61,4.61,0,0,0,.54-.36l.1-.06-.23-.24a.11.11,0,0,0-.08-.07c-.28.18-.55.4-.82.61l-.24.16Zm1.16-.1-.16.11h.09a1.29,1.29,0,0,1,.73,0c0-.09-.25-.25-.31-.36s-.33.18-.35.22Zm-2.71,0h.39l.12-.37L24,41.74a1.47,1.47,0,0,1-.42,0h0L23,42l.68.21Zm1.58-.1c.25-.2.45-.53.71-.71a6.73,6.73,0,0,0-1,.21,2.29,2.29,0,0,1-.52.11,1.41,1.41,0,0,0-.16.49,4.61,4.61,0,0,1,.53.15,1.92,1.92,0,0,0,.47-.25ZM16.87,42c-.06,0-.11-.09-.18-.13H16a6,6,0,0,0,.59.39l.29-.25Zm3.66.7h0c0-.05,0-.1,0-.15l-.09-.16c-.21-.27-.45-.55-.67-.81l-.65.09,1.28.94.15.09Zm-6.81-.42.54-.4.47-.08-.66-.07-.32.38a.51.51,0,0,0,0,.17Zm-5.48-.22.6,0L8.77,42l-.14-.18c-.06,0-.08-.17-.13-.22l-.87-.2h0l-.09.12c.14.11.25.31.4.41a2.31,2.31,0,0,0,.35.18Zm-.9-.36a3.73,3.73,0,0,1-.32.36l-.16.06-.05,0h.08A1,1,0,0,1,7.25,42l.56,0a2.85,2.85,0,0,0-.47-.34Zm0,.47,0,0s0,0,0,0l.44.23a1.41,1.41,0,0,0,.34-.19l-.77-.06Zm4.36-.5.22,0a7.46,7.46,0,0,1-1-.53,2,2,0,0,1-.33.31,8.27,8.27,0,0,0,.8.26Zm-2.43.39.56-.16s-.06-.15-.07-.16H9.33l-.51-.09.06.08c0,.1.26.3.35.34Zm1.23-.18.44-.14-.48-.16s0,0-.05,0l-.23.12c-.07,0-.17,0-.23.07a.56.56,0,0,0,.07.16l.48,0Z"/><path class="cls-2" d="M12.13,38.42l-.24.94s.41.13.49,0,.3-.63.1-.79a.87.87,0,0,0-.35-.13ZM8.26,36.68s-.33-.22-.55.32.16.61.16.61.41.15.55-.38-.16-.55-.16-.55Zm19.4,1s-.88.09-.88-1a.9.9,0,0,1,1.8-.08.86.86,0,0,1-.92,1.06Zm-2,.29c-.59.06-.85-.54-.94-.92s.17-.73.65-.93a.83.83,0,0,1,.87.24l-.41.29a.26.26,0,0,0-.35-.12c-.15.07-.34.17-.17.6s.37.42.57.33S26,37,26,37l.48,0c.1.54-.34.9-.86.95Zm-1.57.8-1.3-1.39.5-.21.83.92-.18-1.24.5-.21.16,1.89-.51.24ZM23,39.13a8.12,8.12,0,0,1-1,.54L21.14,38s.35-.17.73-.33.81-.23,1.08.37.12.95,0,1.07ZM20.33,40s-.33-.4-.45-.52-.22-.08-.22-.08l.13.7-.54.13-.37-1.75c1.21-.33,1.53-.29,1.64.09a.5.5,0,0,1-.25.61.35.35,0,0,0,0,.07c.38,0,.64.63.64.63l-.59.12ZM18,40.46s-.88.17-1-.9a.84.84,0,0,1,.94-1,.83.83,0,0,1,.85.75A.85.85,0,0,1,18,40.46ZM16,40c.21,0,.31-.28.31-.28l.46.17a.84.84,0,0,1-1.19.48c-.55-.2-.53-.85-.44-1.23s.46-.59,1-.57.68.6.68.6l-.49.09A.27.27,0,0,0,16,39c-.17,0-.38,0-.41.48s.15.53.37.53Zm-1.76.32-.56-.09-.36-1.89.55.09L14,39.76l.54-1.15.53.08-.86,1.67Zm-1.37-.73a.65.65,0,0,1-.59.21l-1-.22.46-1.73c.88.22,1.08.23,1.27.56a1.34,1.34,0,0,1-.18,1.18Zm-2.46-.42L9.88,39l-.22-1.14-.37.88-.47-.21.68-1.68.47.22.23,1.1.37-.85.5.2-.71,1.67ZM7.71,38s-.86-.22-.49-1.22a.84.84,0,0,1,1.27-.49.84.84,0,0,1,.45,1A.86.86,0,0,1,7.71,38Zm-1-.47-.51-.06-.52-1-.13.95-.5-.08.22-1.8.51.09.51,1,.13-.91.53,0-.24,1.8Zm25.43-.78s-.26-.4-2.44-.32h0c.05-.6.07-1,.07-1s-2-2.47-6.14.72-12.58,1.13-14.92-.64-4.51-1-5.16.17l.13.76a5.26,5.26,0,0,0-2.27.29A20.35,20.35,0,0,1,3,38.29l-1.36,2a12.26,12.26,0,0,1,5.8.44c2.86.86,3.36.37,3.19-.25a11.19,11.19,0,0,0,3.72.94,19.47,19.47,0,0,0,8.74-1c.07.36.28.91.84,1,.82.09,5.55-2,8-1.13-1-1.31-1.59-2.1-1.59-2.1l1.78-1.44Zm-4.47-.57s-.38-.1-.4.49.36.51.36.51.43,0,.38-.54-.34-.46-.34-.46ZM17.88,39s-.39-.06-.36.52.4.48.4.48.43,0,.33-.57-.37-.43-.37-.43Zm1.58-.29.09.4s.52-.07.47-.28-.2-.21-.56-.12Zm2.33-.54.43.88s.37-.11.37-.31a2,2,0,0,0-.28-.64s-.14-.19-.52.07Z"/><path class="cls-2" d="M7.49,33.63A.63.63,0,0,0,6.85,33a.63.63,0,0,0-.4,1.12.74.74,0,0,1,.72-.57.83.83,0,0,1,.32.07Zm-1.91.1a.63.63,0,0,0-.63.63H5a3.39,3.39,0,0,1,1.26-.14.64.64,0,0,0-.63-.5Zm2.52.45a.53.53,0,0,0-.52.41,5.28,5.28,0,0,1,.89.49.56.56,0,0,0,.15-.38.52.52,0,0,0-.52-.52ZM7.78,34a.64.64,0,0,0-.53-.28.63.63,0,0,0-.63.52,4.25,4.25,0,0,1,.78.23A.81.81,0,0,1,7.78,34Z"/><path class="cls-2" d="M25.36,34.18a.52.52,0,0,0-.52.52.59.59,0,0,0,.12.35,5.85,5.85,0,0,1,.92-.44.52.52,0,0,0-.52-.43Zm.85-.42a.64.64,0,0,0-.53.28.76.76,0,0,1,.39.5,4.18,4.18,0,0,1,.77-.2.62.62,0,0,0-.63-.58Zm1.66,0a.64.64,0,0,0-.63.56,3.54,3.54,0,0,1,1.27.12v0a.63.63,0,0,0-.64-.63ZM26.61,33a.63.63,0,0,0-.64.62.83.83,0,0,1,.32-.07.74.74,0,0,1,.72.57.63.63,0,0,0-.4-1.12Z"/><path class="cls-1" d="M129.48,30a3.72,3.72,0,0,0-.31,1.66,6,6,0,0,0,.2,1.59A4.61,4.61,0,0,0,130,34.6a3,3,0,0,0,1,.91,2.44,2.44,0,0,0,1.17.29h.23a3.12,3.12,0,0,0,1.38-.44,2.43,2.43,0,0,0,.91-1,3.81,3.81,0,0,0,.3-1.58,6.56,6.56,0,0,0-.22-1.67,4.54,4.54,0,0,0-.63-1.44,2.63,2.63,0,0,0-1-.85,2.34,2.34,0,0,0-1.13-.28h-.39a2.26,2.26,0,0,0-1.27.38,2.54,2.54,0,0,0-.9,1.08Zm1.71-4.4h.7a9.16,9.16,0,0,1,3.16.58,5.43,5.43,0,0,1,2.48,1.69A6.6,6.6,0,0,1,138.75,30a7.35,7.35,0,0,1,.32,2.19,8,8,0,0,1-.46,2.55,5.12,5.12,0,0,1-1.56,2.31,6.19,6.19,0,0,1-2.44,1.29,9.5,9.5,0,0,1-2.46.36,9.08,9.08,0,0,1-2.71-.41A6,6,0,0,1,127.09,37a5.81,5.81,0,0,1-1.54-2.27,7.37,7.37,0,0,1-.5-2.66,4.28,4.28,0,0,1,0-.55c0-.14.07-.54.19-1.21a5.56,5.56,0,0,1,1-2.21,4.86,4.86,0,0,1,2-1.7,14.13,14.13,0,0,1,1.73-.64,5.07,5.07,0,0,1,1.14-.14Zm-13.9.22h4v9.65h4.11v3h-8.12V25.8Zm-13.1,0h4v7.76a3.92,3.92,0,0,0,.18,1.41,1.41,1.41,0,0,0,.56.65,2.27,2.27,0,0,0,1.17.24,2.35,2.35,0,0,0,1.22-.26,1.2,1.2,0,0,0,.55-.73,4.7,4.7,0,0,0,.13-1.16V25.8h3.65v7.72a8.87,8.87,0,0,1-.35,2.69A2.83,2.83,0,0,1,114,37.82a6.1,6.1,0,0,1-1.94.71,11.53,11.53,0,0,1-2.11.18,11.19,11.19,0,0,1-2.11-.2,6,6,0,0,1-2-.78,2.71,2.71,0,0,1-1.31-1.62,10.74,10.74,0,0,1-.31-2.86V25.8Zm-8.27,7.69h2.55l-1.23-3.87-1.32,3.87Zm3.53-7.84,4.69,12.84H99.86l-.73-2.41H95.24l-.76,2.41h-4l4.79-12.84ZM85,31.61h.63A4.48,4.48,0,0,0,87,31.46a1.09,1.09,0,0,0,.64-.53,1.53,1.53,0,0,0,.22-.77,1.71,1.71,0,0,0-.28-.95,1.26,1.26,0,0,0-.66-.53,3.44,3.44,0,0,0-1-.12H85v3.05ZM81,25.8h5.47a8.74,8.74,0,0,1,2.9.48,3.37,3.37,0,0,1,2,1.59,4.77,4.77,0,0,1,.58,2.25,4.39,4.39,0,0,1-.7,2.43A3.47,3.47,0,0,1,89.08,34a12,12,0,0,1-3,.37H85v4.12H81V25.8ZM66.66,30a3.71,3.71,0,0,0-.32,1.66,6,6,0,0,0,.21,1.59,4.37,4.37,0,0,0,.59,1.37,3,3,0,0,0,1,.91,2.48,2.48,0,0,0,1.18.29h.22a3.12,3.12,0,0,0,1.38-.44,2.3,2.3,0,0,0,.91-1,3.65,3.65,0,0,0,.31-1.58,6.56,6.56,0,0,0-.22-1.67,4.54,4.54,0,0,0-.63-1.44,2.71,2.71,0,0,0-1-.85,2.39,2.39,0,0,0-1.13-.28h-.39a2.26,2.26,0,0,0-1.27.38,2.54,2.54,0,0,0-.9,1.08Zm1.7-4.4h.71a9.07,9.07,0,0,1,3.15.58,5.41,5.41,0,0,1,2.49,1.69A6.78,6.78,0,0,1,75.93,30a7.69,7.69,0,0,1,.32,2.19,8,8,0,0,1-.46,2.55,5.12,5.12,0,0,1-1.56,2.31,6.26,6.26,0,0,1-2.44,1.29,9.62,9.62,0,0,1-2.46.36,9.14,9.14,0,0,1-2.72-.41A6.14,6.14,0,0,1,64.26,37a5.91,5.91,0,0,1-1.54-2.27,7.59,7.59,0,0,1-.5-2.66c0-.23,0-.41,0-.55s.08-.54.2-1.21a5.4,5.4,0,0,1,1-2.21,5,5,0,0,1,2-1.7,14.13,14.13,0,0,1,1.72-.64,5.07,5.07,0,0,1,1.14-.14Zm-9.59-2.69.82.06a3.9,3.9,0,0,1-.46,1,1.85,1.85,0,0,1-.63.59,2.27,2.27,0,0,1-.65.24,2.62,2.62,0,0,1-.54.06,4.75,4.75,0,0,1-1-.14l-.89-.21-.69-.18a4.11,4.11,0,0,0-.47-.11,2.08,2.08,0,0,0-.42-.06,2.5,2.5,0,0,0-.45.13,1.06,1.06,0,0,0-.37.37l-.78,0a4.86,4.86,0,0,1,.51-1.13,1.78,1.78,0,0,1,.72-.64,4.37,4.37,0,0,1,1.34-.22,4.75,4.75,0,0,1,1,.14c.4.09.33.17.62.23l.86.24a3,3,0,0,0,.65.11,1.28,1.28,0,0,0,.83-.48Zm-.68,2.91,4.63,12.69H58.49l-.72-2.39H53.93l-.76,2.39h-4L54,25.8ZM54.6,33.54h2.52L55.9,29.72l-1.3,3.82Zm-5.76-7.45-.58,3.15a12.85,12.85,0,0,0-1.57-.4,10,10,0,0,0-1.84-.23,1.65,1.65,0,0,0-1.14.31.65.65,0,0,0-.2.7.78.78,0,0,0,.54.5l1,.28.79.23a8.77,8.77,0,0,1,2.09.83A2.46,2.46,0,0,1,49,32.76a4.3,4.3,0,0,1,.3,1.39,4.93,4.93,0,0,1-.29,1.6,4.17,4.17,0,0,1-1,1.55,4.23,4.23,0,0,1-1.9,1.08,9.64,9.64,0,0,1-2.67.35,15,15,0,0,1-2.84-.3l-1.17-.22L40,34.9c.33.09,1,.2,2.12.35a19.29,19.29,0,0,0,2.18.22,1.32,1.32,0,0,0,.71-.15.58.58,0,0,0,.22-.51,1.24,1.24,0,0,0-.08-.37c0-.15-.21-.27-.5-.38l-1-.3-.57-.15a7,7,0,0,1-2.51-1,2.39,2.39,0,0,1-.72-1.16,4.62,4.62,0,0,1-.21-1.35,5.44,5.44,0,0,1,.26-1.66,4.12,4.12,0,0,1,.92-1.5,3.78,3.78,0,0,1,1.79-1,9.5,9.5,0,0,1,2.54-.31,12.71,12.71,0,0,1,1.6.09c.47.06.93.14,1.37.24l.71.16Z"/><path class="cls-2" d="M48.62,14.14,46,14.31c0-1.5-.61-2.24-1.73-2.24-1.28,0-1.92,1.14-1.92,3.43a4.84,4.84,0,0,0,.52,2.69,1.71,1.71,0,0,0,1.46.7q1.53,0,1.86-2l2.4.14a4.28,4.28,0,0,1-1.4,2.87A4.72,4.72,0,0,1,41,19.46a5.71,5.71,0,0,1-1.3-4,5.9,5.9,0,0,1,1.26-3.9,4.24,4.24,0,0,1,3.45-1.51c2.52,0,3.94,1.35,4.26,4.07Zm3.88-3.92V20.74H50.05V10.22Zm2.11,0h3.2a6,6,0,0,1,2.92.55,5,5,0,0,1,1.73,1.72,5.4,5.4,0,0,1,.76,3,5.55,5.55,0,0,1-1.33,3.78,4.66,4.66,0,0,1-3.67,1.51H54.61V10.22ZM57,12.16v6.61h1a2.23,2.23,0,0,0,2-1,4.28,4.28,0,0,0,.65-2.36,4.16,4.16,0,0,0-.37-1.77,2.48,2.48,0,0,0-.93-1.14,2.51,2.51,0,0,0-1.32-.33Zm12.63-1.94,3.27,10.52H70.28l-.65-2.18H66.24l-.67,2.18H63.41l3.37-10.52Zm-2.83,6.4h2.23L68,12.94l-1.13,3.68Zm7.23-6.4h3.21a6,6,0,0,1,2.92.55,5,5,0,0,1,1.72,1.72,5.31,5.31,0,0,1,.76,3,5.51,5.51,0,0,1-1.33,3.78,4.64,4.64,0,0,1-3.66,1.51H74.05V10.22Zm2.42,1.94v6.61h1a2.21,2.21,0,0,0,2-1,4.2,4.2,0,0,0,.65-2.36,4.16,4.16,0,0,0-.37-1.77,2.47,2.47,0,0,0-.92-1.14,2.55,2.55,0,0,0-1.33-.33Zm15.31.07h-5v2.16h3.93v2H86.78v2.3h5v2.08h-7.5V10.22h7.5v2Zm5.42-2h3.21a6,6,0,0,1,2.92.55,5,5,0,0,1,1.72,1.72,5.31,5.31,0,0,1,.76,3,5.51,5.51,0,0,1-1.33,3.78,4.64,4.64,0,0,1-3.66,1.51H97.2V10.22Zm2.41,1.94v6.61h1a2.21,2.21,0,0,0,2-1,4.28,4.28,0,0,0,.65-2.36,4.16,4.16,0,0,0-.37-1.77,2.22,2.22,0,0,0-2.25-1.47Zm15.32.07h-5v2.16h3.93v2h-3.93v2.3h5v2.08h-7.5V10.22h7.5v2Z"/><path class="cls-2" d="M39.9,51.32V43.85h4.58v1.64h-2.6v1.3h2.45v1.6H41.88v1.26h2.6v1.67Zm5.92,0V43.85h1.56a12.64,12.64,0,0,1,2.46.16,3.4,3.4,0,0,1,1.27.55,3.09,3.09,0,0,1,1.08,1.27,4,4,0,0,1,.37,1.76,4,4,0,0,1-.37,1.77,3.22,3.22,0,0,1-1.08,1.27,3.4,3.4,0,0,1-1.23.53,10.26,10.26,0,0,1-2.16.16h-1.9Zm2-1.67h.34a2.61,2.61,0,0,0,1.76-.49,2,2,0,0,0,.55-1.57A2.06,2.06,0,0,0,49.94,46a2.6,2.6,0,0,0-1.76-.5h-.34v4.13Zm5.95-5.8h2v3.64c0,.53,0,.91,0,1.15a2.14,2.14,0,0,0,.14.58.88.88,0,0,0,.41.44,1.52,1.52,0,0,0,.71.15,1.55,1.55,0,0,0,.71-.15.92.92,0,0,0,.41-.44,2.17,2.17,0,0,0,.13-.58,10.63,10.63,0,0,0,0-1.15V43.85h2V47.8a8,8,0,0,1-.15,1.82,2.31,2.31,0,0,1-.5,1,2.26,2.26,0,0,1-1,.68,6.07,6.07,0,0,1-3.24,0,2.35,2.35,0,0,1-1.06-.68,2.55,2.55,0,0,1-.5-1,8,8,0,0,1-.15-1.82V43.85Zm13.62.29v2.23a3,3,0,0,0-.84-.68,1.83,1.83,0,0,0-.89-.22,1.81,1.81,0,0,0-1.42.6,2.25,2.25,0,0,0-.55,1.56,2.09,2.09,0,0,0,.56,1.49,1.83,1.83,0,0,0,1.41.59,1.94,1.94,0,0,0,.89-.21,3,3,0,0,0,.84-.68V51a5,5,0,0,1-1,.36,4.49,4.49,0,0,1-2.1,0,3.58,3.58,0,0,1-1-.44,3.86,3.86,0,0,1-1.28-1.42,4.17,4.17,0,0,1-.43-1.92A4.33,4.33,0,0,1,62,46a3.91,3.91,0,0,1,.84-1.27,3.52,3.52,0,0,1,1.2-.82,3.9,3.9,0,0,1,1.48-.27,4,4,0,0,1,1,.12,4.94,4.94,0,0,1,1,.35Zm3.12,4.39h2l-.76-2.46c0-.08-.06-.2-.1-.37s-.09-.38-.16-.64c0,.18-.08.36-.13.53s-.08.32-.13.48l-.75,2.46Zm-2.85,2.79,2.58-7.47h2.55l2.58,7.47h-2L73,50h-2.9l-.38,1.33Zm13.84-7.18v2.23a3.07,3.07,0,0,0-.83-.68,1.86,1.86,0,0,0-.89-.22,1.81,1.81,0,0,0-1.42.6,2.2,2.2,0,0,0-.55,1.56,2.09,2.09,0,0,0,.56,1.49,1.83,1.83,0,0,0,1.41.59,2,2,0,0,0,.89-.21,3.07,3.07,0,0,0,.83-.68V51a4.69,4.69,0,0,1-1,.36,4.51,4.51,0,0,1-1,.11,4.43,4.43,0,0,1-1.13-.14,3.44,3.44,0,0,1-.95-.44,3.78,3.78,0,0,1-1.28-1.42,4.18,4.18,0,0,1-.44-1.92A4.33,4.33,0,0,1,76.07,46a3.91,3.91,0,0,1,.84-1.27,3.34,3.34,0,0,1,1.2-.82,3.86,3.86,0,0,1,1.48-.27,4,4,0,0,1,1,.12,4.64,4.64,0,0,1,1,.35Zm-3.39,9.43v-.71a6.8,6.8,0,0,0,.77.17,3.67,3.67,0,0,0,.61.06.5.5,0,0,0,.33-.09.32.32,0,0,0,.11-.28.24.24,0,0,0-.14-.24,1.05,1.05,0,0,0-.46-.08h-.28V51.32h.58v.43h.1a1.3,1.3,0,0,1,.86.26.89.89,0,0,1,.31.72,1,1,0,0,1-.34.79,1.46,1.46,0,0,1-1,.28,5.59,5.59,0,0,1-.68,0,7.55,7.55,0,0,1-.81-.18Zm6.52-5h2l-.76-2.46a3.44,3.44,0,0,1-.1-.37c0-.16-.09-.38-.16-.64,0,.18-.09.36-.13.53s-.08.32-.13.48l-.75,2.46Zm-2.86,2.79,2.59-7.47h2.55l2.58,7.47h-2L87.11,50h-2.9l-.39,1.33Zm5.56-9.91a2.32,2.32,0,0,1-.43,1,.9.9,0,0,1-.69.31H86l-.18,0-.47-.14h0a1.71,1.71,0,0,0-.33-.07.37.37,0,0,0-.28.1.58.58,0,0,0-.18.31H84a2.15,2.15,0,0,1,.41-1,.86.86,0,0,1,.68-.31l.2,0,.26.06.49.14.13,0h.16a.37.37,0,0,0,.28-.11.7.7,0,0,0,.17-.31ZM97.9,47.6a3.8,3.8,0,0,1-.3,1.51,3.68,3.68,0,0,1-.86,1.26,4.25,4.25,0,0,1-1.31.86,4,4,0,0,1-4.35-.86,3.84,3.84,0,0,1,0-5.54A4,4,0,0,1,92.37,44a4.07,4.07,0,0,1,4.37.85,4,4,0,0,1,.86,1.26,3.84,3.84,0,0,1,.3,1.51Zm-4,2.2a1.82,1.82,0,0,0,1.41-.62,2.35,2.35,0,0,0,.55-1.58A2.3,2.3,0,0,0,95.3,46a1.89,1.89,0,0,0-2.8,0A2.28,2.28,0,0,0,92,47.6a2.31,2.31,0,0,0,.54,1.58,1.82,1.82,0,0,0,1.41.62Z"/></svg>