<svg width="554" height="82" viewBox="0 0 554 82" fill="none" xmlns="http://www.w3.org/2000/svg">
<path d="M415.128 49.2394C415.128 47.1018 414.365 45.4361 412.838 44.2424C411.339 43.0486 408.688 41.8132 404.884 40.5362C401.081 39.2592 397.972 38.0238 395.556 36.8301C387.7 32.9712 383.772 27.6688 383.772 20.9228C383.772 17.5636 384.743 14.607 386.687 12.053C388.658 9.47116 391.434 7.47234 395.015 6.05651C398.596 4.61291 402.622 3.89111 407.091 3.89111C411.45 3.89111 415.35 4.66843 418.793 6.22307C422.263 7.77771 424.956 9.99863 426.871 12.8858C428.787 15.7452 429.745 19.0211 429.745 22.7134H415.17C415.17 20.2426 414.406 18.3271 412.88 16.9667C411.38 15.6064 409.34 14.9263 406.758 14.9263C404.149 14.9263 402.08 15.5093 400.553 16.6753C399.054 17.8135 398.305 19.2709 398.305 21.0477C398.305 22.6023 399.138 24.0182 400.803 25.2952C402.469 26.5444 405.398 27.8492 409.59 29.2095C413.782 30.5421 417.224 31.9857 419.917 33.5403C426.469 37.3159 429.745 42.5212 429.745 49.1561C429.745 54.4586 427.746 58.6228 423.748 61.6488C419.751 64.6748 414.268 66.1878 407.3 66.1878C402.386 66.1878 397.93 65.3133 393.932 63.5643C389.963 61.7876 386.964 59.3723 384.938 56.3186C382.939 53.2371 381.939 49.6975 381.939 45.6998H396.597C396.597 48.9479 397.43 51.3493 399.096 52.9039C400.789 54.4308 403.524 55.1942 407.3 55.1942C409.715 55.1942 411.616 54.6807 413.005 53.6535C414.42 52.5986 415.128 51.1272 415.128 49.2394Z" fill="#33B082"/>
<path d="M456.437 4.72396L469.971 46.9075L483.463 4.72396H502.702V65.3549H488.044V51.1966L489.46 22.2137L474.801 65.3549H465.14L450.441 22.172L451.857 51.1966V65.3549H437.24V4.72396H456.437Z" fill="#33B082"/>
<path d="M549.632 39.6617H526.646V54.1116H553.797V65.3549H512.03V4.72396H553.88V16.009H526.646V28.7931H549.632V39.6617Z" fill="#33B082"/>
<path d="M35.5382 48.3212C35.5382 45.6717 34.5998 43.6294 32.7231 42.1943C30.874 40.7591 27.5207 39.3102 22.6633 37.8475C17.806 36.3847 13.9421 34.7564 11.0719 32.9625C5.5797 29.5126 2.83362 25.014 2.83362 19.4667C2.83362 14.6093 4.80693 10.6075 8.75356 7.46122C12.7278 4.31496 17.875 2.74182 24.1951 2.74182C28.3901 2.74182 32.1297 3.51459 35.414 5.06012C38.6982 6.60565 41.2787 8.81356 43.1554 11.6838C45.0322 14.5265 45.9705 17.6866 45.9705 21.164H35.5382C35.5382 18.0178 34.5446 15.5615 32.5575 13.7951C30.598 12.0012 27.7829 11.1043 24.1123 11.1043C20.69 11.1043 18.0267 11.8356 16.1224 13.2984C14.2457 14.7611 13.3074 16.8034 13.3074 19.4253C13.3074 21.6332 14.3285 23.4823 16.3708 24.9726C18.4131 26.4354 21.7802 27.8705 26.472 29.2781C31.1638 30.658 34.931 32.2449 37.7737 34.0388C40.6163 35.8052 42.7001 37.8475 44.0248 40.1658C45.3495 42.4565 46.0119 45.1474 46.0119 48.2384C46.0119 53.2614 44.08 57.2632 40.2162 60.2439C36.3799 63.197 31.1638 64.6735 24.5677 64.6735C20.2071 64.6735 16.1914 63.8731 12.5208 62.2724C8.87775 60.6441 6.03508 58.4086 3.99277 55.5659C1.97806 52.7232 0.970703 49.4114 0.970703 45.6303H11.4444C11.4444 49.0526 12.576 51.7021 14.8391 53.5788C17.1022 55.4555 20.345 56.3939 24.5677 56.3939C28.2107 56.3939 30.943 55.6625 32.7645 54.1998C34.6136 52.7094 35.5382 50.7499 35.5382 48.3212Z" fill="#F0F7F7"/>
<path d="M48.9545 41.0351C48.9545 36.6469 49.8239 32.7003 51.5626 29.1953C53.3013 25.6626 55.7438 22.9579 58.8901 21.0812C62.0363 19.1769 65.6518 18.2247 69.7364 18.2247C75.7805 18.2247 80.6793 20.1705 84.4327 24.0619C88.2138 27.9533 90.2561 33.1143 90.5597 39.5448L90.6011 41.9045C90.6011 46.3203 89.7455 50.2669 88.0344 53.7444C86.3508 57.2218 83.9221 59.9127 80.7483 61.817C77.602 63.7213 73.959 64.6735 69.8192 64.6735C63.4991 64.6735 58.4347 62.576 54.626 58.381C50.845 54.1584 48.9545 48.542 48.9545 41.5319V41.0351ZM59.0143 41.9045C59.0143 46.5135 59.9664 50.1289 61.8707 52.7508C63.775 55.3451 66.4245 56.6422 69.8192 56.6422C73.2138 56.6422 75.8495 55.3175 77.7262 52.668C79.6305 50.0185 80.5827 46.1409 80.5827 41.0351C80.5827 36.5089 79.6029 32.9211 77.6434 30.2716C75.7115 27.6221 73.0758 26.2974 69.7364 26.2974C66.4521 26.2974 63.844 27.6083 61.9121 30.2302C59.9802 32.8245 59.0143 36.7159 59.0143 41.9045Z" fill="#F0F7F7"/>
<path d="M105.052 19.0527L105.342 24.2275C108.654 20.2257 113.001 18.2247 118.383 18.2247C127.711 18.2247 132.458 23.5651 132.624 34.2458V63.8455H122.564V34.8254C122.564 31.9827 121.943 29.8852 120.701 28.5329C119.486 27.1529 117.486 26.463 114.698 26.463C110.641 26.463 107.619 28.2983 105.632 31.9689V63.8455H95.5721V19.0527H105.052Z" fill="#F0F7F7"/>
<path d="M137.636 41.1179C137.636 34.2182 139.237 28.6847 142.438 24.5173C145.64 20.3222 149.931 18.2247 155.313 18.2247C160.06 18.2247 163.896 19.8807 166.822 23.1925V0.257935H176.881V63.8455H167.774L167.277 59.2089C164.269 62.852 160.253 64.6735 155.23 64.6735C149.986 64.6735 145.736 62.5622 142.48 58.3396C139.251 54.117 137.636 48.3764 137.636 41.1179ZM147.696 41.9873C147.696 46.5411 148.565 50.1013 150.304 52.668C152.07 55.2071 154.568 56.4767 157.797 56.4767C161.909 56.4767 164.917 54.6413 166.822 50.9707V31.8447C164.973 28.2569 161.992 26.463 157.88 26.463C154.623 26.463 152.112 27.7601 150.345 30.3544C148.579 32.9211 147.696 36.7987 147.696 41.9873Z" fill="#F0F7F7"/>
<path d="M210.748 63.8455C210.307 62.99 209.921 61.5962 209.589 59.6643C206.388 63.0038 202.469 64.6735 197.832 64.6735C193.334 64.6735 189.663 63.3901 186.82 60.8235C183.978 58.2568 182.556 55.0829 182.556 51.3019C182.556 46.5273 184.323 42.8705 187.855 40.3314C191.416 37.7647 196.494 36.4813 203.09 36.4813H209.258V33.5421C209.258 31.2238 208.61 29.3746 207.312 27.9947C206.015 26.5872 204.042 25.8834 201.392 25.8834C199.102 25.8834 197.225 26.463 195.762 27.6221C194.3 28.7537 193.568 30.2026 193.568 31.9689H183.508C183.508 29.5126 184.323 27.2219 185.951 25.0968C187.579 22.9441 189.787 21.2606 192.575 20.0463C195.39 18.8319 198.522 18.2247 201.972 18.2247C207.216 18.2247 211.397 19.5495 214.516 22.199C217.634 24.8209 219.235 28.5191 219.318 33.2937V53.496C219.318 57.5254 219.884 60.7407 221.015 63.1418V63.8455H210.748ZM199.695 56.6008C201.682 56.6008 203.545 56.1179 205.284 55.1519C207.05 54.186 208.375 52.8888 209.258 51.2605V42.8153H203.835C200.109 42.8153 197.308 43.4638 195.431 44.761C193.554 46.0581 192.616 47.8934 192.616 50.2669C192.616 52.1988 193.251 53.7444 194.52 54.9035C195.818 56.0351 197.542 56.6008 199.695 56.6008Z" fill="#F0F7F7"/>
<path d="M224.703 41.1179C224.703 34.163 226.331 28.6157 229.588 24.4759C232.872 20.3084 237.219 18.2247 242.628 18.2247C247.734 18.2247 251.75 20.0049 254.675 23.5651L255.131 19.0527H264.197V62.4794C264.197 68.3579 262.361 72.9945 258.691 76.3892C255.048 79.7838 250.121 81.4812 243.912 81.4812C240.627 81.4812 237.412 80.7912 234.266 79.4112C231.147 78.0589 228.774 76.2788 227.145 74.0709L231.906 68.0267C234.997 71.6974 238.806 73.5327 243.332 73.5327C246.672 73.5327 249.307 72.6219 251.239 70.8004C253.171 69.0065 254.137 66.357 254.137 62.852V59.8299C251.239 63.059 247.375 64.6735 242.546 64.6735C237.302 64.6735 233.01 62.5898 229.671 58.4224C226.359 54.255 224.703 48.4868 224.703 41.1179ZM234.721 41.9873C234.721 46.4859 235.632 50.0323 237.454 52.6266C239.303 55.1933 241.856 56.4767 245.112 56.4767C249.169 56.4767 252.178 54.7379 254.137 51.2605V31.555C252.233 28.1603 249.252 26.463 245.195 26.463C241.883 26.463 239.303 27.7739 237.454 30.3958C235.632 33.0177 234.721 36.8815 234.721 41.9873Z" fill="#F0F7F7"/>
<path d="M290.902 64.6735C284.527 64.6735 279.352 62.6726 275.378 58.6708C271.431 54.6413 269.458 49.2872 269.458 42.6083V41.3663C269.458 36.8953 270.313 32.9073 272.024 29.4022C273.763 25.8696 276.192 23.1235 279.31 21.164C282.429 19.2045 285.907 18.2247 289.743 18.2247C295.842 18.2247 300.548 20.1705 303.86 24.0619C307.199 27.9533 308.869 33.4593 308.869 40.5798V44.6368H279.6C279.904 48.335 281.132 51.2605 283.285 53.4132C285.465 55.5659 288.197 56.6422 291.482 56.6422C296.091 56.6422 299.844 54.7793 302.742 51.0535L308.165 56.2283C306.371 58.9053 303.97 60.9891 300.962 62.4794C297.981 63.9421 294.628 64.6735 290.902 64.6735ZM289.701 26.2974C286.942 26.2974 284.706 27.2633 282.995 29.1953C281.311 31.1272 280.235 33.8181 279.766 37.2679H298.933V36.5227C298.712 33.1557 297.815 30.6166 296.242 28.9055C294.669 27.1667 292.489 26.2974 289.701 26.2974Z" fill="#F0F7F7"/>
<path d="M322.782 19.0527L323.072 23.7307C326.218 20.0601 330.523 18.2247 335.988 18.2247C341.977 18.2247 346.075 20.5154 348.283 25.0968C351.54 20.5154 356.121 18.2247 362.027 18.2247C366.968 18.2247 370.638 19.5909 373.039 22.3232C375.468 25.0554 376.71 29.0849 376.765 34.4114V63.8455H366.705V34.7012C366.705 31.8585 366.084 29.7748 364.842 28.4501C363.6 27.1253 361.544 26.463 358.674 26.463C356.383 26.463 354.507 27.084 353.044 28.3259C351.609 29.5402 350.601 31.141 350.022 33.1281L350.063 63.8455H340.003V34.37C339.866 29.0987 337.175 26.463 331.931 26.463C327.901 26.463 325.045 28.1051 323.361 31.3894V63.8455H313.302V19.0527H322.782Z" fill="#F0F7F7"/>
</svg>
