<svg id="Camada_1" data-name="Camada 1" xmlns="http://www.w3.org/2000/svg" viewBox="0 0 548.88 94.89"><defs><style>.cls-1{fill:#f0f7f7;}.cls-2{fill:#33b082;}</style></defs><title>Prancheta 3</title><path class="cls-1" d="M27,46.26H13.8V72.49H2V4.3h24q11.81,0,18.22,5.29t6.42,15.33a19.21,19.21,0,0,1-3.3,11.46,20.93,20.93,0,0,1-9.21,7.1l15.32,28.4v.61H40.69ZM13.8,36.71H26q6,0,9.37-3a10.54,10.54,0,0,0,3.37-8.27q0-5.48-3.12-8.48c-2.07-2-5.17-3-9.29-3.09H13.8Z"/><path class="cls-1" d="M83,73.42q-10.81,0-17.53-6.81T58.76,48.46v-1.4A30.43,30.43,0,0,1,61.69,33.5a22.29,22.29,0,0,1,8.22-9.3,21.78,21.78,0,0,1,11.8-3.32q10.35,0,16,6.6t5.64,18.69v4.59H70.24a15.23,15.23,0,0,0,4.19,9.93,12.6,12.6,0,0,0,9.25,3.65A15.43,15.43,0,0,0,96.42,58l6.13,5.85a20.45,20.45,0,0,1-8.12,7.05A25.46,25.46,0,0,1,83,73.42ZM81.67,30a9.57,9.57,0,0,0-7.57,3.28q-2.88,3.27-3.67,9.13H92.11v-.84q-.37-5.71-3-8.64A9.49,9.49,0,0,0,81.67,30Z"/><path class="cls-1" d="M110.19,46.78q0-11.81,5.55-18.86a17.83,17.83,0,0,1,14.73-7q8.66,0,13.63,6l.51-5.11h10.26V70.94q0,10-6.21,15.74t-16.74,5.76A26.89,26.89,0,0,1,121,90.12,19.37,19.37,0,0,1,113,84.06l5.39-6.84a16.25,16.25,0,0,0,12.92,6.23q5.67,0,9-3.07t3.28-9V67.94q-4.92,5.49-13.12,5.48a17.75,17.75,0,0,1-14.54-7.07Q110.19,59.29,110.19,46.78Zm11.33,1q0,7.64,3.12,12a10,10,0,0,0,8.64,4.38,10.94,10.94,0,0,0,10.21-5.9V36a10.81,10.81,0,0,0-10.12-5.76,10,10,0,0,0-8.73,4.45Q121.52,39.09,121.52,47.76Z"/><path class="cls-1" d="M166.58,8.65a6,6,0,0,1,1.66-4.35A6.26,6.26,0,0,1,173,2.56a6.35,6.35,0,0,1,4.78,1.74,6,6,0,0,1,1.69,4.35,5.88,5.88,0,0,1-1.69,4.29A6.41,6.41,0,0,1,173,14.65a6.32,6.32,0,0,1-4.75-1.71A5.9,5.9,0,0,1,166.58,8.65Zm12.08,63.84H167.28V21.81h11.38Z"/><path class="cls-1" d="M219.45,58.72a5.16,5.16,0,0,0-2.5-4.64c-1.67-1.06-4.45-2-8.32-2.81a42.55,42.55,0,0,1-9.69-3.09q-8.52-4.12-8.52-11.94a13.49,13.49,0,0,1,5.52-11q5.53-4.41,14.05-4.4,9.09,0,14.68,4.49A14.25,14.25,0,0,1,230.27,37H218.89a7,7,0,0,0-2.43-5.45A9.36,9.36,0,0,0,210,29.4a10.12,10.12,0,0,0-6.11,1.73,5.47,5.47,0,0,0-2.37,4.64,4.6,4.6,0,0,0,2.21,4.07c1.46,1,4.43,1.95,8.89,2.93a42.38,42.38,0,0,1,10.52,3.51,15,15,0,0,1,5.67,4.9,12.48,12.48,0,0,1,1.85,6.93A13.21,13.21,0,0,1,225,69.19q-5.67,4.23-14.85,4.23A26.2,26.2,0,0,1,199,71.18,18.26,18.26,0,0,1,191.45,65a14.54,14.54,0,0,1-2.72-8.47h11.05a8,8,0,0,0,3.05,6.2,11.82,11.82,0,0,0,7.44,2.18q4.5,0,6.84-1.71A5.29,5.29,0,0,0,219.45,58.72Z"/><path class="cls-1" d="M254.81,9.5V21.81h8.95v8.43h-8.95V58.53A6.19,6.19,0,0,0,256,62.72c.76.86,2.13,1.29,4.1,1.29a17.09,17.09,0,0,0,4-.47v8.81a27.93,27.93,0,0,1-7.49,1.07q-13.12,0-13.12-14.47V30.24h-8.34V21.81h8.34V9.5Z"/><path class="cls-1" d="M299,32.21a28.22,28.22,0,0,0-4.64-.37q-7.81,0-10.54,6V72.49H272.42V21.81h10.87l.28,5.67q4.13-6.6,11.43-6.6a10.77,10.77,0,0,1,4,.65Z"/><path class="cls-1" d="M327.59,73.42q-10.81,0-17.54-6.81t-6.72-18.15v-1.4a30.43,30.43,0,0,1,2.93-13.56,22.29,22.29,0,0,1,8.22-9.3,21.78,21.78,0,0,1,11.8-3.32q10.35,0,16,6.6t5.64,18.69v4.59H314.81A15.23,15.23,0,0,0,319,60.69a12.6,12.6,0,0,0,9.25,3.65A15.43,15.43,0,0,0,341,58l6.13,5.85A20.52,20.52,0,0,1,339,70.92,25.46,25.46,0,0,1,327.59,73.42ZM326.23,30a9.57,9.57,0,0,0-7.56,3.28A17,17,0,0,0,315,42.42h21.69v-.84q-.37-5.71-3.05-8.64A9.47,9.47,0,0,0,326.23,30Z"/><path class="cls-2" d="M393.93,54.25a6.77,6.77,0,0,0-2.56-5.62q-2.55-2-9-4.17a84.54,84.54,0,0,1-10.49-4.17Q358.67,33.8,358.66,22.4a16,16,0,0,1,3.3-10,21.39,21.39,0,0,1,9.34-6.75,36.36,36.36,0,0,1,13.59-2.41,31.78,31.78,0,0,1,13.18,2.62,20.85,20.85,0,0,1,9.06,7.47,19.48,19.48,0,0,1,3.23,11.08H394A8.26,8.26,0,0,0,391.42,18a10,10,0,0,0-6.91-2.29,11.25,11.25,0,0,0-6.95,1.94A6,6,0,0,0,375,22.54q0,2.63,2.81,4.76t9.89,4.4a61.58,61.58,0,0,1,11.61,4.89Q410.37,43,410.36,54.16q0,8.94-6.74,14t-18.5,5.1a36.73,36.73,0,0,1-15-3A22.66,22.66,0,0,1,360,62.19a21.25,21.25,0,0,1-3.39-11.92h16.48c0,3.65.95,6.35,2.84,8.08s4.95,2.6,9.2,2.6a10.59,10.59,0,0,0,6.44-1.76A5.78,5.78,0,0,0,393.93,54.25Z"/><path class="cls-2" d="M440.38,4.19l15.23,47.44L470.78,4.19h21.64V72.38H475.93V56.45l1.59-32.59L461,72.38H450.17L433.64,23.81l1.59,32.64V72.38H418.79V4.19Z"/><path class="cls-2" d="M545.15,43.43H519.3v16.3h30.53V72.38h-47V4.19h47.07V16.88H519.3V31.26h25.85Z"/></svg>